<svg width="40" height="41" viewBox="0 0 40 41" fill="none" xmlns="http://www.w3.org/2000/svg">
<g id="alarm-clock-check 1">
<path id="Vector" d="M8.33301 5.23828L3.33301 10.2383M36.6663 10.2383L31.6663 5.23828M9.99968 31.9049L6.66634 35.2383M29.9997 31.9049L33.333 35.2383M14.9997 22.7383L18.333 26.0716L25.833 18.5716M19.9997 35.2383C23.5358 35.2383 26.9273 33.8334 29.4278 31.3331C31.9282 28.8326 33.333 25.4411 33.333 21.9049C33.333 18.3688 31.9282 14.9773 29.4278 12.4769C26.9273 9.97636 23.5358 8.57161 19.9997 8.57161C16.4635 8.57161 13.0721 9.97636 10.5716 12.4769C8.07109 14.9773 6.66634 18.3688 6.66634 21.9049C6.66634 25.4411 8.07109 28.8326 10.5716 31.3331C13.0721 33.8334 16.4635 35.2383 19.9997 35.2383Z" stroke="#5773E5" stroke-width="3" stroke-linecap="round" stroke-linejoin="round"/>
</g>
</svg>
