<svg width="706" height="701" viewBox="0 0 706 701" fill="none" xmlns="http://www.w3.org/2000/svg">
<g opacity="0.4">
<path d="M1.37501 314.435L706.623 175.172" stroke="#1F44DD" stroke-width="0.25" stroke-linecap="round" stroke-linejoin="round"/>
<path d="M1.37501 206.432L263.065 -1.14388e-05" stroke="#1F44DD" stroke-width="0.25" stroke-linecap="round" stroke-linejoin="round"/>
<path d="M1.37501 170.429L174.233 -7.55585e-06" stroke="#1F44DD" stroke-width="0.25" stroke-linecap="round" stroke-linejoin="round"/>
<path d="M1.37501 134.432L115.002 -4.9668e-06" stroke="#1F44DD" stroke-width="0.25" stroke-linecap="round" stroke-linejoin="round"/>
<path d="M1.37501 242.435L411.089 -1.79092e-05" stroke="#1F44DD" stroke-width="0.25" stroke-linecap="round" stroke-linejoin="round"/>
<path d="M1.375 98.4292L72.6882 -3.1172e-06" stroke="#1F44DD" stroke-width="0.25" stroke-linecap="round" stroke-linejoin="round"/>
<path d="M1.375 26.4247L16.2679 -6.50989e-07" stroke="#1F44DD" stroke-width="0.25" stroke-linecap="round" stroke-linejoin="round"/>
<path d="M1.375 62.427L40.9501 -1.72988e-06" stroke="#1F44DD" stroke-width="0.25" stroke-linecap="round" stroke-linejoin="round"/>
<path d="M1.375 602.447L72.8175 700.999" stroke="#1F44DD" stroke-width="0.25" stroke-linecap="round" stroke-linejoin="round"/>
<path d="M1.375 350.439L706.623 350.198" stroke="#1F44DD" stroke-width="0.25" stroke-linecap="round" stroke-linejoin="round"/>
<path d="M1.375 638.449L41.0436 700.999" stroke="#1F44DD" stroke-width="0.25" stroke-linecap="round" stroke-linejoin="round"/>
<path d="M1.375 674.447L16.3421 700.998" stroke="#1F44DD" stroke-width="0.25" stroke-linecap="round" stroke-linejoin="round"/>
<path d="M1.375 566.445L115.175 700.999" stroke="#1F44DD" stroke-width="0.25" stroke-linecap="round" stroke-linejoin="round"/>
<path d="M1.375 530.443L174.472 701" stroke="#1F44DD" stroke-width="0.25" stroke-linecap="round" stroke-linejoin="round"/>
<path d="M1.375 458.441L411.771 700.999" stroke="#1F44DD" stroke-width="0.25" stroke-linecap="round" stroke-linejoin="round"/>
<path d="M1.375 494.443L263.45 700.999" stroke="#1F44DD" stroke-width="0.25" stroke-linecap="round" stroke-linejoin="round"/>
<path d="M1.375 386.441L706.623 525.225" stroke="#1F44DD" stroke-width="0.25" stroke-linecap="round" stroke-linejoin="round"/>
<path d="M1.37501 278.433L706.623 0.148407" stroke="#1F44DD" stroke-width="0.25" stroke-linecap="round" stroke-linejoin="round"/>
<path d="M1.375 422.439L706.623 700.247" stroke="#1F44DD" stroke-width="0.25" stroke-linecap="round" stroke-linejoin="round"/>
<path d="M97.623 700.999L97.6229 -6.00987e-08" stroke="#1F44DD" stroke-width="0.25" stroke-linecap="round" stroke-linejoin="round"/>
<path d="M33.0785 700.999L33.0785 -6.00987e-08" stroke="#1F44DD" stroke-width="0.25" stroke-linecap="round" stroke-linejoin="round"/>
<path d="M46.2392 700.999L46.2392 -6.00987e-08" stroke="#1F44DD" stroke-width="0.25" stroke-linecap="round" stroke-linejoin="round"/>
<path d="M61.1215 700.999L61.1215 -6.00987e-08" stroke="#1F44DD" stroke-width="0.25" stroke-linecap="round" stroke-linejoin="round"/>
<path d="M10.849 700.999L10.849 -6.00987e-08" stroke="#1F44DD" stroke-width="0.25" stroke-linecap="round" stroke-linejoin="round"/>
<path d="M21.3569 700.999L21.3568 -6.00987e-08" stroke="#1F44DD" stroke-width="0.25" stroke-linecap="round" stroke-linejoin="round"/>
<path d="M519.926 700.999L519.926 -6.00987e-08" stroke="#1F44DD" stroke-width="0.25" stroke-linecap="round" stroke-linejoin="round"/>
<path d="M120.325 700.999L120.325 -6.00987e-08" stroke="#1F44DD" stroke-width="0.25" stroke-linecap="round" stroke-linejoin="round"/>
<path d="M78.0976 700.999L78.0976 -6.00987e-08" stroke="#1F44DD" stroke-width="0.25" stroke-linecap="round" stroke-linejoin="round"/>
<path d="M1.37493 700.999L1.3749 -6.00987e-08" stroke="#1F44DD" stroke-width="0.25" stroke-linecap="round" stroke-linejoin="round"/>
<path d="M147.049 700.999L147.049 -6.00987e-08" stroke="#1F44DD" stroke-width="0.25" stroke-linecap="round" stroke-linejoin="round"/>
<path d="M178.976 700.999L178.975 -6.00987e-08" stroke="#1F44DD" stroke-width="0.25" stroke-linecap="round" stroke-linejoin="round"/>
<path d="M408.326 700.999L408.326 -6.00987e-08" stroke="#1F44DD" stroke-width="0.25" stroke-linecap="round" stroke-linejoin="round"/>
<path d="M217.788 700.999L217.787 -6.00987e-08" stroke="#1F44DD" stroke-width="0.25" stroke-linecap="round" stroke-linejoin="round"/>
<path d="M265.965 700.999L265.965 -6.00987e-08" stroke="#1F44DD" stroke-width="0.25" stroke-linecap="round" stroke-linejoin="round"/>
<path d="M327.373 700.999L327.373 -6.00987e-08" stroke="#1F44DD" stroke-width="0.25" stroke-linecap="round" stroke-linejoin="round"/>
</g>
<rect width="175" height="701" fill="url(#paint0_linear_804_13041)"/>
<defs>
<linearGradient id="paint0_linear_804_13041" x1="175" y1="328" x2="7.65981e-06" y2="328" gradientUnits="userSpaceOnUse">
<stop stop-color="white" stop-opacity="0"/>
<stop offset="1" stop-color="white"/>
</linearGradient>
</defs>
</svg>
