<svg width="1770" height="822" viewBox="0 0 1770 822" fill="none" xmlns="http://www.w3.org/2000/svg">
<g opacity="0.25" clip-path="url(#clip0_1006_372)">
<path d="M1594.73 -284.23L1107.14 203.148V648.401L1594.73 1135.2" stroke="#1F44DD" stroke-width="0.549506" stroke-linecap="round" stroke-linejoin="round"/>
<path d="M1594.44 -47.3516L1218.45 203.148L1218.46 648.393L1594.43 899.51" stroke="#1F44DD" stroke-width="0.549506" stroke-linecap="round" stroke-linejoin="round"/>
<path d="M1594.44 189.137L1552.38 203.147L1552.39 648.392L1594.43 662.43" stroke="#1F44DD" stroke-width="0.549506" stroke-linecap="round" stroke-linejoin="round"/>
<path d="M528.787 -284.23L773.22 203.148L773.213 648.388L529.703 1135.2" stroke="#1F44DD" stroke-width="0.549506" stroke-linecap="round" stroke-linejoin="round"/>
<path d="M1594.44 70.9102L1329.76 203.148L1329.77 648.394L1594.43 780.955" stroke="#1F44DD" stroke-width="0.549506" stroke-linecap="round" stroke-linejoin="round"/>
<path d="M175.008 -46.7852L550.597 203.15L550.59 648.394L174.995 898.969" stroke="#1F44DD" stroke-width="0.549506" stroke-linecap="round" stroke-linejoin="round"/>
<path d="M174.986 71.2305L439.261 203.151V648.403L174.993 780.647" stroke="#1F44DD" stroke-width="0.549506" stroke-linecap="round" stroke-linejoin="round"/>
<path d="M174.98 142.055L327.947 203.149V648.4L174.993 709.639" stroke="#1F44DD" stroke-width="0.549506" stroke-linecap="round" stroke-linejoin="round"/>
<path d="M174.974 189.281L216.631 203.149V648.4L174.993 662.293" stroke="#1F44DD" stroke-width="0.549506" stroke-linecap="round" stroke-linejoin="round"/>
<path d="M1239.39 -284.23L995.836 203.148V648.401L1238.5 1135.2" stroke="#1F44DD" stroke-width="0.549506" stroke-linecap="round" stroke-linejoin="round"/>
<path d="M1594.44 141.848L1441.07 203.148L1441.08 648.393L1594.43 709.836" stroke="#1F44DD" stroke-width="0.549506" stroke-linecap="round" stroke-linejoin="round"/>
<path d="M884.088 -284.23L884.527 203.148V642.33L884.101 1135.2" stroke="#1F44DD" stroke-width="0.549506" stroke-linecap="round" stroke-linejoin="round"/>
<path d="M175.304 -284.23L661.904 203.148L661.898 648.395L175.304 1135.2" stroke="#1F44DD" stroke-width="0.549506" stroke-linecap="round" stroke-linejoin="round"/>
<path d="M1594.73 163.74H175.305" stroke="#1F44DD" stroke-width="0.549506" stroke-linecap="round" stroke-linejoin="round"/>
<path d="M1594.73 138.283H175.305" stroke="#1F44DD" stroke-width="0.549506" stroke-linecap="round" stroke-linejoin="round"/>
<path d="M1594.73 68.9428H175.305" stroke="#1F44DD" stroke-width="0.549506" stroke-linecap="round" stroke-linejoin="round"/>
<path d="M1594.73 19.9935H175.305" stroke="#1F44DD" stroke-width="0.549506" stroke-linecap="round" stroke-linejoin="round"/>
<path d="M1594.73 107.349H175.305" stroke="#1F44DD" stroke-width="0.549506" stroke-linecap="round" stroke-linejoin="round"/>
<path d="M1594.73 185.048H175.305" stroke="#1F44DD" stroke-width="0.549506" stroke-linecap="round" stroke-linejoin="round"/>
<path d="M1594.43 782.966H174.994" stroke="#1F44DD" stroke-width="0.549506" stroke-linecap="round" stroke-linejoin="round"/>
<path d="M1594.43 744.454H174.994" stroke="#1F44DD" stroke-width="0.549506" stroke-linecap="round" stroke-linejoin="round"/>
<path d="M1594.43 713.439H174.994" stroke="#1F44DD" stroke-width="0.549506" stroke-linecap="round" stroke-linejoin="round"/>
<path d="M1594.43 687.919H174.994" stroke="#1F44DD" stroke-width="0.549506" stroke-linecap="round" stroke-linejoin="round"/>
<path d="M1594.43 666.548H174.994" stroke="#1F44DD" stroke-width="0.549506" stroke-linecap="round" stroke-linejoin="round"/>
<path d="M1594.43 648.4H174.994" stroke="#1F44DD" stroke-width="0.549506" stroke-linecap="round" stroke-linejoin="round"/>
<path d="M175.634 203.15H1595" stroke="#1F44DD" stroke-width="0.549506" stroke-linecap="round" stroke-linejoin="round"/>
<path d="M175.634 314.458H1595" stroke="#1F44DD" stroke-width="0.549506" stroke-linecap="round" stroke-linejoin="round"/>
<path d="M175.634 425.767H1595" stroke="#1F44DD" stroke-width="0.549506" stroke-linecap="round" stroke-linejoin="round"/>
<path d="M175.634 537.072H1595" stroke="#1F44DD" stroke-width="0.549506" stroke-linecap="round" stroke-linejoin="round"/>
<rect width="381" height="1770" transform="matrix(0 1 1 0 0 0.785156)" fill="url(#paint0_linear_1006_372)"/>
<rect width="381" height="1770" transform="matrix(0 -1 1 0 0 821.785)" fill="url(#paint1_linear_1006_372)"/>
</g>
<defs>
<linearGradient id="paint0_linear_1006_372" x1="381" y1="828.188" x2="1.66764e-05" y2="828.188" gradientUnits="userSpaceOnUse">
<stop stop-color="white" stop-opacity="0"/>
<stop offset="1" stop-color="white"/>
</linearGradient>
<linearGradient id="paint1_linear_1006_372" x1="381" y1="828.188" x2="1.66764e-05" y2="828.188" gradientUnits="userSpaceOnUse">
<stop stop-color="white" stop-opacity="0"/>
<stop offset="1" stop-color="white"/>
</linearGradient>
<clipPath id="clip0_1006_372">
<rect width="1770" height="821" fill="white" transform="translate(0 0.785156)"/>
</clipPath>
</defs>
</svg>
