<svg width="48" height="48" viewBox="0 0 48 48" fill="none" xmlns="http://www.w3.org/2000/svg">
<g id="building-02 1">
<path id="Vector" d="M30 42V31.2C30 30.0798 30 29.5198 29.782 29.092C29.5902 28.7156 29.2844 28.4098 28.908 28.218C28.4802 28 27.9202 28 26.8 28H21.2C20.0798 28 19.5198 28 19.092 28.218C18.7157 28.4098 18.4097 28.7156 18.218 29.092C18 29.5198 18 30.0798 18 31.2V42M6 14C6 17.3137 8.6863 20 12 20C15.3137 20 18 17.3137 18 14C18 17.3137 20.6862 20 24 20C27.3138 20 30 17.3137 30 14C30 17.3137 32.6862 20 36 20C39.3138 20 42 17.3137 42 14M12.4 42H35.6C37.8402 42 38.9604 42 39.816 41.564C40.5686 41.1806 41.1806 40.5686 41.564 39.816C42 38.9604 42 37.8402 42 35.6V12.4C42 10.1598 42 9.03968 41.564 8.18404C41.1806 7.43138 40.5686 6.81946 39.816 6.43598C38.9604 6 37.8402 6 35.6 6H12.4C10.1598 6 9.03968 6 8.18404 6.43598C7.43138 6.81946 6.81946 7.43138 6.43598 8.18404C6 9.03968 6 10.1598 6 12.4V35.6C6 37.8402 6 38.9604 6.43598 39.816C6.81946 40.5686 7.43138 41.1806 8.18404 41.564C9.03968 42 10.1598 42 12.4 42Z" stroke="#017130" stroke-width="4" stroke-linecap="round" stroke-linejoin="round"/>
</g>
</svg>
