<svg width="40" height="41" viewBox="0 0 40 41" fill="none" xmlns="http://www.w3.org/2000/svg">
<g id="eraser 1">
<path id="Vector" d="M29.9995 21.9054L18.3328 10.2388M34.9995 35.2388H13.3329M18.2283 33.6768L32.676 19.2289C34.6562 17.2489 35.6462 16.2589 36.0172 15.1173C36.3433 14.113 36.3433 13.0313 36.0172 12.0271C35.6462 10.8854 34.6562 9.89539 32.676 7.9153L32.3232 7.56235C30.343 5.58227 29.353 4.59222 28.2113 4.22129C27.2072 3.89499 26.1253 3.89499 25.1212 4.22129C23.9795 4.59222 22.9895 5.58227 21.0093 7.56235L7.3231 21.2486C5.34301 23.2288 4.35296 24.2188 3.98203 25.3604C3.65573 26.3646 3.65573 27.4464 3.98203 28.4506C4.35296 29.5923 5.34301 30.5823 7.3231 32.5623L8.43748 33.6768C9.01398 34.2533 9.30223 34.5414 9.63863 34.7476C9.93686 34.9304 10.262 35.0651 10.6021 35.1468C10.9858 35.2388 11.3934 35.2388 12.2087 35.2388H14.4571C15.2724 35.2388 15.6801 35.2388 16.0637 35.1468C16.4038 35.0651 16.729 34.9304 17.0272 34.7476C17.3637 34.5414 17.6518 34.2533 18.2283 33.6768Z" stroke="#5773E5" stroke-width="3" stroke-linecap="round" stroke-linejoin="round"/>
</g>
</svg>
