<svg width="40" height="41" viewBox="0 0 40 41" fill="none" xmlns="http://www.w3.org/2000/svg">
<g id="feather 1">
<path id="Vector" d="M26.6663 13.5721L3.33301 36.9054M29.9997 25.2388H14.9997M10.9997 31.9054H22.2285C22.636 31.9054 22.8398 31.9054 23.0317 31.8593C23.2018 31.8184 23.3643 31.7511 23.5135 31.6598C23.6817 31.5568 23.8258 31.4126 24.114 31.1243L32.4997 22.7388C32.898 22.3404 33.097 22.1413 33.2573 21.9649C36.7243 18.1509 36.7243 12.3265 33.2573 8.51244C33.097 8.33613 32.898 8.13699 32.4997 7.73873C32.1013 7.34046 31.9023 7.14133 31.726 6.98106C27.9118 3.51413 22.0875 3.51413 18.2733 6.98106C18.097 7.14133 17.898 7.34046 17.4997 7.73873L9.11406 16.1243C8.82581 16.4126 8.68167 16.5567 8.57861 16.7249C8.48722 16.874 8.41989 17.0366 8.37906 17.2066C8.33301 17.3984 8.33301 17.6023 8.33301 18.0099V29.2388C8.33301 30.1721 8.33301 30.6388 8.51466 30.9954C8.67446 31.3089 8.92943 31.5639 9.24303 31.7238C9.59954 31.9054 10.0663 31.9054 10.9997 31.9054Z" stroke="#5773E5" stroke-width="3" stroke-linecap="round" stroke-linejoin="round"/>
</g>
</svg>
