<svg width="40" height="40" viewBox="0 0 40 40" fill="none" xmlns="http://www.w3.org/2000/svg">
<path d="M35 16.666C35 28.3327 20 38.3327 20 38.3327C20 38.3327 5 28.3327 5 16.666C5 12.6878 6.58035 8.87246 9.3934 6.05941C12.2064 3.24637 16.0218 1.66602 20 1.66602C23.9782 1.66602 27.7936 3.24637 30.6066 6.05941C33.4196 8.87246 35 12.6878 35 16.666Z" stroke="#5773E5" stroke-width="2" stroke-linecap="round" stroke-linejoin="round"/>
<path d="M20 21.666C22.7614 21.666 25 19.4274 25 16.666C25 13.9046 22.7614 11.666 20 11.666C17.2386 11.666 15 13.9046 15 16.666C15 19.4274 17.2386 21.666 20 21.666Z" stroke="#5773E5" stroke-width="2" stroke-linecap="round" stroke-linejoin="round"/>
</svg>
