<svg width="1772" height="1772" viewBox="0 0 1772 1772" fill="none" xmlns="http://www.w3.org/2000/svg">
<g opacity="0.25">
<path d="M1770.67 1L1162.93 608.486V1163.47L1770.67 1770.23" stroke="#1F44DD" stroke-width="0.684924" stroke-linecap="round" stroke-linejoin="round"/>
<path d="M1770.31 296.256L1301.67 608.488L1301.68 1163.46L1770.3 1476.46" stroke="#1F44DD" stroke-width="0.684924" stroke-linecap="round" stroke-linejoin="round"/>
<path d="M1770.31 591.023L1717.89 608.486L1717.9 1163.46L1770.3 1180.95" stroke="#1F44DD" stroke-width="0.684924" stroke-linecap="round" stroke-linejoin="round"/>
<path d="M442.042 1L746.713 608.486L746.705 1163.45L443.185 1770.23" stroke="#1F44DD" stroke-width="0.684924" stroke-linecap="round" stroke-linejoin="round"/>
<path d="M1770.31 443.66L1440.41 608.486L1440.42 1163.46L1770.3 1328.69" stroke="#1F44DD" stroke-width="0.684924" stroke-linecap="round" stroke-linejoin="round"/>
<path d="M1.07991 296.959L469.228 608.487L469.22 1163.46L1.06348 1475.78" stroke="#1F44DD" stroke-width="0.684924" stroke-linecap="round" stroke-linejoin="round"/>
<path d="M1.05322 444.059L330.455 608.49V1163.47L1.06144 1328.3" stroke="#1F44DD" stroke-width="0.684924" stroke-linecap="round" stroke-linejoin="round"/>
<path d="M1.04492 532.338L191.709 608.488V1163.47L1.06136 1239.8" stroke="#1F44DD" stroke-width="0.684924" stroke-linecap="round" stroke-linejoin="round"/>
<path d="M1.03711 591.203L52.9598 608.488V1163.47L1.06177 1180.78" stroke="#1F44DD" stroke-width="0.684924" stroke-linecap="round" stroke-linejoin="round"/>
<path d="M1327.76 1L1024.19 608.486V1163.47L1326.66 1770.23" stroke="#1F44DD" stroke-width="0.684924" stroke-linecap="round" stroke-linejoin="round"/>
<path d="M1770.31 532.082L1579.15 608.489L1579.16 1163.46L1770.3 1240.04" stroke="#1F44DD" stroke-width="0.684924" stroke-linecap="round" stroke-linejoin="round"/>
<path d="M884.903 1L885.451 608.486V1155.9L884.92 1770.23" stroke="#1F44DD" stroke-width="0.684924" stroke-linecap="round" stroke-linejoin="round"/>
<path d="M1.44922 1L607.966 608.486L607.958 1163.46L1.44922 1770.23" stroke="#1F44DD" stroke-width="0.684924" stroke-linecap="round" stroke-linejoin="round"/>
<path d="M1770.67 559.368H1.45068" stroke="#1F44DD" stroke-width="0.684924" stroke-linecap="round" stroke-linejoin="round"/>
<path d="M1770.67 527.637H1.45068" stroke="#1F44DD" stroke-width="0.684924" stroke-linecap="round" stroke-linejoin="round"/>
<path d="M1770.67 441.208H1.45068" stroke="#1F44DD" stroke-width="0.684924" stroke-linecap="round" stroke-linejoin="round"/>
<path d="M1770.67 188.88H1.45068" stroke="#1F44DD" stroke-width="0.684924" stroke-linecap="round" stroke-linejoin="round"/>
<path d="M1770.67 380.196H1.45068" stroke="#1F44DD" stroke-width="0.684924" stroke-linecap="round" stroke-linejoin="round"/>
<path d="M1770.67 489.081H1.45068" stroke="#1F44DD" stroke-width="0.684924" stroke-linecap="round" stroke-linejoin="round"/>
<path d="M1770.67 585.928H1.45068" stroke="#1F44DD" stroke-width="0.684924" stroke-linecap="round" stroke-linejoin="round"/>
<path d="M1770.67 299.757H1.45068" stroke="#1F44DD" stroke-width="0.684924" stroke-linecap="round" stroke-linejoin="round"/>
<path d="M1770.3 1392.37H1.0625" stroke="#1F44DD" stroke-width="0.684924" stroke-linecap="round" stroke-linejoin="round"/>
<path d="M1770.3 1331.19H1.0625" stroke="#1F44DD" stroke-width="0.684924" stroke-linecap="round" stroke-linejoin="round"/>
<path d="M1770.3 1283.19H1.0625" stroke="#1F44DD" stroke-width="0.684924" stroke-linecap="round" stroke-linejoin="round"/>
<path d="M1770.3 1473.03H1.0625" stroke="#1F44DD" stroke-width="0.684924" stroke-linecap="round" stroke-linejoin="round"/>
<path d="M1770.3 1244.53H1.0625" stroke="#1F44DD" stroke-width="0.684924" stroke-linecap="round" stroke-linejoin="round"/>
<path d="M1770.3 1212.72H1.0625" stroke="#1F44DD" stroke-width="0.684924" stroke-linecap="round" stroke-linejoin="round"/>
<path d="M1770.3 1186.09H1.0625" stroke="#1F44DD" stroke-width="0.684924" stroke-linecap="round" stroke-linejoin="round"/>
<path d="M1770.3 1584.22H1.0625" stroke="#1F44DD" stroke-width="0.684924" stroke-linecap="round" stroke-linejoin="round"/>
<path d="M1770.3 1163.47H1.0625" stroke="#1F44DD" stroke-width="0.684924" stroke-linecap="round" stroke-linejoin="round"/>
<path d="M1.86035 608.487H1771.01" stroke="#1F44DD" stroke-width="0.684924" stroke-linecap="round" stroke-linejoin="round"/>
<path d="M1.86035 747.225H1771.01" stroke="#1F44DD" stroke-width="0.684924" stroke-linecap="round" stroke-linejoin="round"/>
<path d="M1.86035 885.966H1771.01" stroke="#1F44DD" stroke-width="0.684924" stroke-linecap="round" stroke-linejoin="round"/>
<path d="M1.86035 1024.7H1771.01" stroke="#1F44DD" stroke-width="0.684924" stroke-linecap="round" stroke-linejoin="round"/>
<mask id="mask0_1014_411" style="mask-type:luminance" maskUnits="userSpaceOnUse" x="1" y="1768" width="1768" height="3">
<path fill-rule="evenodd" clip-rule="evenodd" d="M1.45068 1768.86H1768.4V1770.58H1.45068V1768.86Z" fill="white"/>
</mask>
<g mask="url(#mask0_1014_411)">
<path d="M1768.4 1770.23H1.45068" stroke="#1F44DD" stroke-width="0.684924" stroke-linecap="round" stroke-linejoin="round"/>
</g>
</g>
</svg>
