<svg width="40" height="40" viewBox="0 0 40 40" fill="none" xmlns="http://www.w3.org/2000/svg">
<path d="M36.6666 28.2008V33.2008C36.6685 33.665 36.5734 34.1244 36.3875 34.5497C36.2015 34.975 35.9288 35.3568 35.5868 35.6706C35.2447 35.9844 34.8409 36.2233 34.4012 36.372C33.9615 36.5207 33.4956 36.5759 33.0333 36.5341C27.9047 35.9769 22.9783 34.2244 18.65 31.4175C14.623 28.8586 11.2089 25.4444 8.64997 21.4175C5.83327 17.0695 4.08037 12.1191 3.5333 6.96748C3.49165 6.50659 3.54643 6.04208 3.69414 5.60352C3.84185 5.16496 4.07925 4.76196 4.39125 4.42018C4.70324 4.0784 5.08298 3.80533 5.50629 3.61835C5.9296 3.43137 6.3872 3.33458 6.84997 3.33415H11.85C12.6588 3.32619 13.443 3.61261 14.0562 4.14003C14.6695 4.66746 15.0701 5.39989 15.1833 6.20081C15.3943 7.80092 15.7857 9.37202 16.35 10.8841C16.5742 11.4807 16.6227 12.129 16.4898 12.7523C16.3569 13.3756 16.0481 13.9477 15.6 14.4008L13.4833 16.5175C15.8559 20.6901 19.3107 24.1449 23.4833 26.5175L25.6 24.4008C26.0531 23.9527 26.6252 23.6439 27.2485 23.511C27.8718 23.378 28.5201 23.4266 29.1166 23.6508C30.6288 24.2151 32.1999 24.6064 33.8 24.8175C34.6096 24.9317 35.349 25.3395 35.8775 25.9633C36.4061 26.5871 36.6869 27.3834 36.6666 28.2008Z" stroke="#5773E5" stroke-width="2" stroke-linecap="round" stroke-linejoin="round"/>
</svg>
