<svg width="206" height="148" viewBox="0 0 206 148" fill="none" xmlns="http://www.w3.org/2000/svg">
<path d="M0 88.5605C0 82.7076 4.74471 77.9629 10.5976 77.9629H32.704C38.5569 77.9629 43.3016 82.7076 43.3016 88.5605V146.589H0V88.5605Z" fill="#D2DAF8"/>
<path d="M53.8994 53.9179C53.8994 48.065 58.6441 43.3203 64.497 43.3203H86.6034C92.4563 43.3203 97.201 48.065 97.201 53.9179V146.588H53.8994V53.9179Z" fill="#D2DAF8"/>
<path d="M107.799 65.0527C107.799 59.1998 112.544 54.4551 118.396 54.4551H140.503C146.356 54.4551 151.1 59.1998 151.1 65.0527V146.588H107.799V65.0527Z" fill="#D2DAF8"/>
<path d="M161.697 10.6171C161.697 4.76424 166.442 0.0195312 172.295 0.0195312H194.401C200.254 0.0195312 204.999 4.76424 204.999 10.6171V146.589H161.697V10.6171Z" fill="#1F44DD"/>
</svg>
