<svg width="347" height="191" viewBox="0 0 347 191" fill="none" xmlns="http://www.w3.org/2000/svg">
<path fill-rule="evenodd" clip-rule="evenodd" d="M37.3076 202.612C37.3076 202.612 37.7994 202.433 41.9807 197.91C46.162 193.387 52.4836 208.878 61.8297 216.043C70.7864 223.208 73.2151 176.263 82.1718 187.011C91.518 197.758 117.918 147.753 127.264 140.588C136.221 133.422 145.567 133.422 154.524 115.509C163.87 97.5959 172.827 61.7695 182.173 58.1869C191.129 54.6042 200.476 83.2654 209.822 94.0133C218.778 104.761 228.125 97.5959 237.081 90.4306C246.427 83.2654 255.384 76.1001 264.73 86.848C273.687 97.5959 283.033 126.257 291.99 129.84C301.336 133.422 310.293 111.926 319.639 90.4306C328.595 68.9348 337.941 47.4389 346.898 36.691C356.244 25.9431 365.59 25.9431 374.547 33.1084C383.893 40.2737 392.85 54.6042 402.196 79.6827C411.153 104.761 420.499 63.715 429.456 85.2109C438.802 106.707 447.758 113.872 457.105 85.2109C466.061 56.5498 475.407 68.9348 484.364 36.691C493.71 4.44727 502.667 4.44727 507.34 4.44727H512.013V197.91H507.34C502.667 197.91 493.71 197.91 484.364 197.91C475.407 197.91 466.061 197.91 457.105 197.91C447.758 197.91 438.802 197.91 429.456 197.91C420.499 197.91 411.153 197.91 402.196 197.91C392.85 197.91 383.893 197.91 374.547 197.91C365.59 197.91 356.244 197.91 346.898 197.91C337.941 197.91 328.595 197.91 319.639 197.91C310.293 197.91 301.336 197.91 291.99 197.91C283.033 197.91 273.687 197.91 264.73 197.91C255.384 197.91 246.427 197.91 237.081 197.91C228.125 197.91 218.778 197.91 209.822 197.91C200.476 197.91 191.129 197.91 182.173 197.91C172.827 197.91 163.87 197.91 154.524 197.91C145.567 197.91 136.221 197.91 127.264 197.91C117.918 197.91 108.961 197.91 99.6153 197.91C90.6586 197.91 81.3125 197.91 72.3558 197.91C63.0097 197.91 54.053 197.91 49.3799 197.91H44.7068L37.3076 202.612Z" fill="url(#paint0_linear_804_11054)" fill-opacity="0.1"/>
<g filter="url(#filter0_d_804_11054)">
<path d="M7.5193 216.237L9.46754 213.925C13.6502 209.337 25.8221 200.944 35.1683 208.128C44.125 215.312 65.041 189.178 73.9977 199.953C83.3438 210.729 117.917 148.123 127.263 140.939C136.22 133.756 145.566 133.756 154.523 115.796C163.869 97.8367 172.826 61.9177 182.172 58.3258C191.128 54.7339 200.475 83.4691 209.821 94.2448C218.777 105.02 228.124 97.8367 237.08 90.6529C246.426 83.4691 255.383 76.2853 264.729 87.061C273.686 97.8367 283.032 126.572 291.989 130.164C301.335 133.756 310.291 112.204 319.638 90.6529C328.594 69.1015 337.94 47.5501 346.897 36.7744C356.243 25.9987 365.589 25.9987 374.546 33.1825C383.892 40.3663 392.849 54.7339 402.195 79.8772C411.152 105.02 420.498 63.8682 429.455 85.4196C438.801 106.971 447.757 114.155 457.104 85.4196C466.06 56.6844 475.406 69.1015 484.363 36.7744C493.709 4.44727 502.666 4.44727 507.339 4.44727H512.012" stroke="#0B24FB" stroke-width="2.72483" stroke-linecap="round" stroke-linejoin="round"/>
</g>
<defs>
<filter id="filter0_d_804_11054" x="0.707576" y="0.359159" width="518.116" height="225.415" filterUnits="userSpaceOnUse" color-interpolation-filters="sRGB">
<feFlood flood-opacity="0" result="BackgroundImageFix"/>
<feColorMatrix in="SourceAlpha" type="matrix" values="0 0 0 0 0 0 0 0 0 0 0 0 0 0 0 0 0 0 127 0" result="hardAlpha"/>
<feOffset dy="2.72483"/>
<feGaussianBlur stdDeviation="2.72483"/>
<feComposite in2="hardAlpha" operator="out"/>
<feColorMatrix type="matrix" values="0 0 0 0 0.0431373 0 0 0 0 0.141176 0 0 0 0 0.984314 0 0 0 0.4 0"/>
<feBlend mode="normal" in2="BackgroundImageFix" result="effect1_dropShadow_804_11054"/>
<feBlend mode="normal" in="SourceGraphic" in2="effect1_dropShadow_804_11054" result="shape"/>
</filter>
<linearGradient id="paint0_linear_804_11054" x1="278.359" y1="4.44727" x2="278.359" y2="197.91" gradientUnits="userSpaceOnUse">
<stop stop-color="#0B24FB"/>
<stop offset="1" stop-color="#0B24FB" stop-opacity="0"/>
</linearGradient>
</defs>
</svg>
