<svg width="20" height="21" viewBox="0 0 20 21" fill="none" xmlns="http://www.w3.org/2000/svg">
<g id="star-01 1">
<path id="Vector" d="M9.40257 3.66297C9.59457 3.27385 9.69066 3.07929 9.82099 3.01713C9.93441 2.96304 10.0662 2.96304 10.1797 3.01713C10.3101 3.07929 10.4061 3.27385 10.5982 3.66297L12.4204 7.3546C12.4771 7.46948 12.5054 7.52692 12.5468 7.57152C12.5836 7.611 12.6276 7.64299 12.6764 7.66572C12.7317 7.69138 12.795 7.70065 12.9217 7.71918L16.9978 8.31496C17.4271 8.37769 17.6417 8.40906 17.741 8.5139C17.8274 8.60511 17.868 8.73045 17.8516 8.85501C17.8327 8.99818 17.6773 9.14953 17.3666 9.4522L14.4182 12.3239C14.3263 12.4134 14.2803 12.4582 14.2507 12.5115C14.2244 12.5585 14.2076 12.6104 14.2011 12.664C14.1937 12.7245 14.2046 12.7877 14.2262 12.9141L14.922 16.9703C14.9953 17.3981 15.032 17.612 14.9631 17.739C14.9031 17.8494 14.7965 17.9269 14.6729 17.9498C14.5308 17.9761 14.3387 17.875 13.9546 17.673L10.3107 15.7567C10.1971 15.697 10.1403 15.6672 10.0805 15.6554C10.0276 15.645 9.97307 15.645 9.92016 15.6554C9.86032 15.6672 9.80357 15.697 9.69007 15.7567L6.04609 17.673C5.66192 17.875 5.46983 17.9761 5.3278 17.9498C5.20422 17.9269 5.09759 17.8494 5.03761 17.739C4.96866 17.612 5.00535 17.3981 5.07871 16.9703L5.7744 12.9141C5.79608 12.7877 5.80693 12.7245 5.79959 12.664C5.79309 12.6104 5.77625 12.5585 5.75 12.5115C5.72034 12.4582 5.67439 12.4134 5.58248 12.3239L2.63412 9.4522C2.32337 9.14953 2.168 8.99818 2.1491 8.85501C2.13265 8.73045 2.17328 8.60511 2.2597 8.5139C2.35902 8.40906 2.57363 8.37769 3.00286 8.31496L7.07892 7.71918C7.20567 7.70065 7.26906 7.69138 7.32426 7.66572C7.37312 7.64299 7.41712 7.611 7.45381 7.57152C7.49525 7.52692 7.5236 7.46948 7.5803 7.3546L9.40257 3.66297Z" fill="#5773E5" stroke="#5773E5" stroke-width="2" stroke-linecap="round" stroke-linejoin="round"/>
</g>
</svg>
