<svg width="1440" height="1100" viewBox="0 0 1440 1100" fill="none" xmlns="http://www.w3.org/2000/svg">
<g opacity="0.8">
<rect x="1254.5" y="562.5" width="109" height="43" rx="21.5" fill="white"/>
<path d="M1284.98 590L1282.42 585.552H1281.02V590H1279.2V578.88H1283.04C1283.89 578.88 1284.61 579.029 1285.2 579.328C1285.8 579.627 1286.24 580.027 1286.53 580.528C1286.83 581.029 1286.98 581.589 1286.98 582.208C1286.98 582.933 1286.76 583.595 1286.34 584.192C1285.92 584.779 1285.27 585.179 1284.4 585.392L1287.15 590H1284.98ZM1281.02 584.096H1283.04C1283.72 584.096 1284.23 583.925 1284.58 583.584C1284.93 583.243 1285.1 582.784 1285.1 582.208C1285.1 581.632 1284.93 581.184 1284.59 580.864C1284.25 580.533 1283.73 580.368 1283.04 580.368H1281.02V584.096ZM1293.13 590.144C1292.3 590.144 1291.55 589.957 1290.88 589.584C1290.21 589.2 1289.68 588.667 1289.29 587.984C1288.91 587.291 1288.72 586.491 1288.72 585.584C1288.72 584.688 1288.91 583.893 1289.31 583.2C1289.7 582.507 1290.24 581.973 1290.93 581.6C1291.61 581.227 1292.37 581.04 1293.21 581.04C1294.06 581.04 1294.82 581.227 1295.5 581.6C1296.18 581.973 1296.72 582.507 1297.12 583.2C1297.51 583.893 1297.71 584.688 1297.71 585.584C1297.71 586.48 1297.51 587.275 1297.1 587.968C1296.7 588.661 1296.14 589.2 1295.44 589.584C1294.74 589.957 1293.98 590.144 1293.13 590.144ZM1293.13 588.56C1293.6 588.56 1294.04 588.448 1294.45 588.224C1294.86 588 1295.2 587.664 1295.45 587.216C1295.71 586.768 1295.84 586.224 1295.84 585.584C1295.84 584.944 1295.71 584.405 1295.47 583.968C1295.22 583.52 1294.9 583.184 1294.49 582.96C1294.09 582.736 1293.65 582.624 1293.18 582.624C1292.71 582.624 1292.27 582.736 1291.87 582.96C1291.47 583.184 1291.16 583.52 1290.93 583.968C1290.69 584.405 1290.57 584.944 1290.57 585.584C1290.57 586.533 1290.81 587.269 1291.29 587.792C1291.78 588.304 1292.4 588.56 1293.13 588.56ZM1303.34 590.144C1302.5 590.144 1301.75 589.957 1301.08 589.584C1300.41 589.2 1299.88 588.667 1299.5 587.984C1299.11 587.291 1298.92 586.491 1298.92 585.584C1298.92 584.688 1299.12 583.893 1299.51 583.2C1299.91 582.507 1300.45 581.973 1301.13 581.6C1301.81 581.227 1302.57 581.04 1303.42 581.04C1304.26 581.04 1305.02 581.227 1305.7 581.6C1306.39 581.973 1306.93 582.507 1307.32 583.2C1307.72 583.893 1307.91 584.688 1307.91 585.584C1307.91 586.48 1307.71 587.275 1307.3 587.968C1306.9 588.661 1306.34 589.2 1305.64 589.584C1304.95 589.957 1304.18 590.144 1303.34 590.144ZM1303.34 588.56C1303.81 588.56 1304.24 588.448 1304.65 588.224C1305.06 588 1305.4 587.664 1305.66 587.216C1305.91 586.768 1306.04 586.224 1306.04 585.584C1306.04 584.944 1305.92 584.405 1305.67 583.968C1305.43 583.52 1305.1 583.184 1304.7 582.96C1304.29 582.736 1303.85 582.624 1303.38 582.624C1302.92 582.624 1302.48 582.736 1302.07 582.96C1301.68 583.184 1301.36 583.52 1301.13 583.968C1300.89 584.405 1300.78 584.944 1300.78 585.584C1300.78 586.533 1301.02 587.269 1301.5 587.792C1301.99 588.304 1302.6 588.56 1303.34 588.56ZM1313.41 582.672H1311.78V590H1309.94V582.672H1308.9V581.184H1309.94V580.56C1309.94 579.547 1310.21 578.811 1310.74 578.352C1311.28 577.883 1312.13 577.648 1313.28 577.648V579.168C1312.73 579.168 1312.34 579.275 1312.12 579.488C1311.89 579.691 1311.78 580.048 1311.78 580.56V581.184H1313.41V582.672ZM1315.96 580.016C1315.63 580.016 1315.35 579.904 1315.12 579.68C1314.9 579.456 1314.79 579.179 1314.79 578.848C1314.79 578.517 1314.9 578.24 1315.12 578.016C1315.35 577.792 1315.63 577.68 1315.96 577.68C1316.28 577.68 1316.55 577.792 1316.77 578.016C1317 578.24 1317.11 578.517 1317.11 578.848C1317.11 579.179 1317 579.456 1316.77 579.68C1316.55 579.904 1316.28 580.016 1315.96 580.016ZM1316.85 581.184V590H1315.03V581.184H1316.85ZM1323.69 581.04C1324.39 581.04 1325.01 581.184 1325.55 581.472C1326.11 581.76 1326.54 582.187 1326.85 582.752C1327.16 583.317 1327.31 584 1327.31 584.8V590H1325.5V585.072C1325.5 584.283 1325.31 583.68 1324.91 583.264C1324.52 582.837 1323.98 582.624 1323.29 582.624C1322.61 582.624 1322.07 582.837 1321.66 583.264C1321.27 583.68 1321.07 584.283 1321.07 585.072V590H1319.25V581.184H1321.07V582.192C1321.37 581.829 1321.75 581.547 1322.21 581.344C1322.68 581.141 1323.17 581.04 1323.69 581.04ZM1333.19 581.04C1333.87 581.04 1334.47 581.179 1335 581.456C1335.53 581.723 1335.95 582.059 1336.25 582.464V581.184H1338.09V590.144C1338.09 590.955 1337.91 591.675 1337.57 592.304C1337.23 592.944 1336.74 593.445 1336.09 593.808C1335.45 594.171 1334.68 594.352 1333.78 594.352C1332.59 594.352 1331.59 594.069 1330.81 593.504C1330.02 592.949 1329.57 592.192 1329.46 591.232H1331.27C1331.41 591.691 1331.7 592.059 1332.15 592.336C1332.61 592.624 1333.15 592.768 1333.78 592.768C1334.52 592.768 1335.11 592.544 1335.56 592.096C1336.02 591.648 1336.25 590.997 1336.25 590.144V588.672C1335.94 589.088 1335.51 589.44 1334.98 589.728C1334.46 590.005 1333.86 590.144 1333.19 590.144C1332.42 590.144 1331.72 589.952 1331.08 589.568C1330.45 589.173 1329.95 588.629 1329.57 587.936C1329.21 587.232 1329.03 586.437 1329.03 585.552C1329.03 584.667 1329.21 583.883 1329.57 583.2C1329.95 582.517 1330.45 581.989 1331.08 581.616C1331.72 581.232 1332.42 581.04 1333.19 581.04ZM1336.25 585.584C1336.25 584.976 1336.12 584.448 1335.86 584C1335.62 583.552 1335.29 583.211 1334.89 582.976C1334.48 582.741 1334.04 582.624 1333.57 582.624C1333.1 582.624 1332.67 582.741 1332.26 582.976C1331.86 583.2 1331.53 583.536 1331.27 583.984C1331.02 584.421 1330.9 584.944 1330.9 585.552C1330.9 586.16 1331.02 586.693 1331.27 587.152C1331.53 587.611 1331.86 587.963 1332.26 588.208C1332.68 588.443 1333.11 588.56 1333.57 588.56C1334.04 588.56 1334.48 588.443 1334.89 588.208C1335.29 587.973 1335.62 587.632 1335.86 587.184C1336.12 586.725 1336.25 586.192 1336.25 585.584Z" fill="#1F44DD"/>
<rect x="1254.5" y="562.5" width="109" height="43" rx="21.5" stroke="#D2DAF8"/>
</g>
<g opacity="0.8">
<rect x="1227.5" y="810.5" width="153" height="43" rx="21.5" fill="white"/>
<path d="M1259.98 830.192C1259.98 830.757 1259.84 831.291 1259.58 831.792C1259.31 832.293 1258.88 832.704 1258.3 833.024C1257.71 833.333 1256.96 833.488 1256.04 833.488H1254.02V838H1252.2V826.88H1256.04C1256.89 826.88 1257.61 827.029 1258.2 827.328C1258.8 827.616 1259.24 828.011 1259.53 828.512C1259.83 829.013 1259.98 829.573 1259.98 830.192ZM1256.04 832C1256.73 832 1257.25 831.845 1257.59 831.536C1257.93 831.216 1258.1 830.768 1258.1 830.192C1258.1 828.976 1257.42 828.368 1256.04 828.368H1254.02V832H1256.04ZM1261.11 833.552C1261.11 832.667 1261.29 831.883 1261.65 831.2C1262.02 830.517 1262.53 829.989 1263.16 829.616C1263.8 829.232 1264.5 829.04 1265.27 829.04C1265.96 829.04 1266.56 829.179 1267.08 829.456C1267.6 829.723 1268.01 830.059 1268.32 830.464V829.184H1270.16V838H1268.32V836.688C1268.01 837.104 1267.59 837.451 1267.06 837.728C1266.53 838.005 1265.92 838.144 1265.24 838.144C1264.48 838.144 1263.78 837.952 1263.16 837.568C1262.53 837.173 1262.02 836.629 1261.65 835.936C1261.29 835.232 1261.11 834.437 1261.11 833.552ZM1268.32 833.584C1268.32 832.976 1268.2 832.448 1267.94 832C1267.69 831.552 1267.37 831.211 1266.96 830.976C1266.56 830.741 1266.12 830.624 1265.65 830.624C1265.18 830.624 1264.74 830.741 1264.34 830.976C1263.93 831.2 1263.6 831.536 1263.35 831.984C1263.1 832.421 1262.98 832.944 1262.98 833.552C1262.98 834.16 1263.1 834.693 1263.35 835.152C1263.6 835.611 1263.93 835.963 1264.34 836.208C1264.76 836.443 1265.19 836.56 1265.65 836.56C1266.12 836.56 1266.56 836.443 1266.96 836.208C1267.37 835.973 1267.69 835.632 1267.94 835.184C1268.2 834.725 1268.32 834.192 1268.32 833.584ZM1274.69 830.672V835.552C1274.69 835.883 1274.76 836.123 1274.91 836.272C1275.07 836.411 1275.34 836.48 1275.71 836.48H1276.83V838H1275.39C1274.57 838 1273.94 837.808 1273.5 837.424C1273.07 837.04 1272.85 836.416 1272.85 835.552V830.672H1271.81V829.184H1272.85V826.992H1274.69V829.184H1276.83V830.672H1274.69ZM1279.44 828.016C1279.11 828.016 1278.83 827.904 1278.61 827.68C1278.38 827.456 1278.27 827.179 1278.27 826.848C1278.27 826.517 1278.38 826.24 1278.61 826.016C1278.83 825.792 1279.11 825.68 1279.44 825.68C1279.76 825.68 1280.03 825.792 1280.26 826.016C1280.48 826.24 1280.59 826.517 1280.59 826.848C1280.59 827.179 1280.48 827.456 1280.26 827.68C1280.03 827.904 1279.76 828.016 1279.44 828.016ZM1280.34 829.184V838H1278.51V829.184H1280.34ZM1286.56 838.144C1285.72 838.144 1284.97 837.957 1284.3 837.584C1283.63 837.2 1283.1 836.667 1282.72 835.984C1282.33 835.291 1282.14 834.491 1282.14 833.584C1282.14 832.688 1282.34 831.893 1282.73 831.2C1283.13 830.507 1283.66 829.973 1284.35 829.6C1285.03 829.227 1285.79 829.04 1286.64 829.04C1287.48 829.04 1288.24 829.227 1288.92 829.6C1289.61 829.973 1290.14 830.507 1290.54 831.2C1290.93 831.893 1291.13 832.688 1291.13 833.584C1291.13 834.48 1290.93 835.275 1290.52 835.968C1290.12 836.661 1289.56 837.2 1288.86 837.584C1288.17 837.957 1287.4 838.144 1286.56 838.144ZM1286.56 836.56C1287.02 836.56 1287.46 836.448 1287.87 836.224C1288.28 836 1288.62 835.664 1288.88 835.216C1289.13 834.768 1289.26 834.224 1289.26 833.584C1289.26 832.944 1289.14 832.405 1288.89 831.968C1288.65 831.52 1288.32 831.184 1287.92 830.96C1287.51 830.736 1287.07 830.624 1286.6 830.624C1286.13 830.624 1285.7 830.736 1285.29 830.96C1284.9 831.184 1284.58 831.52 1284.35 831.968C1284.11 832.405 1284 832.944 1284 833.584C1284 834.533 1284.24 835.269 1284.72 835.792C1285.21 836.304 1285.82 836.56 1286.56 836.56ZM1296.13 838.144C1295.44 838.144 1294.82 838.021 1294.26 837.776C1293.72 837.52 1293.29 837.179 1292.97 836.752C1292.65 836.315 1292.48 835.829 1292.45 835.296H1294.34C1294.37 835.669 1294.55 835.984 1294.87 836.24C1295.2 836.485 1295.61 836.608 1296.1 836.608C1296.61 836.608 1297.01 836.512 1297.29 836.32C1297.57 836.117 1297.72 835.861 1297.72 835.552C1297.72 835.221 1297.56 834.976 1297.24 834.816C1296.93 834.656 1296.43 834.48 1295.75 834.288C1295.09 834.107 1294.55 833.931 1294.13 833.76C1293.72 833.589 1293.36 833.328 1293.05 832.976C1292.75 832.624 1292.6 832.16 1292.6 831.584C1292.6 831.115 1292.74 830.688 1293.01 830.304C1293.29 829.909 1293.69 829.6 1294.2 829.376C1294.72 829.152 1295.32 829.04 1295.99 829.04C1296.99 829.04 1297.8 829.296 1298.41 829.808C1299.03 830.309 1299.36 830.997 1299.4 831.872H1297.57C1297.54 831.477 1297.38 831.163 1297.09 830.928C1296.81 830.693 1296.42 830.576 1295.93 830.576C1295.45 830.576 1295.08 830.667 1294.82 830.848C1294.57 831.029 1294.44 831.269 1294.44 831.568C1294.44 831.803 1294.52 832 1294.69 832.16C1294.87 832.32 1295.07 832.448 1295.32 832.544C1295.56 832.629 1295.93 832.741 1296.41 832.88C1297.05 833.051 1297.57 833.227 1297.97 833.408C1298.39 833.579 1298.75 833.835 1299.05 834.176C1299.35 834.517 1299.5 834.971 1299.51 835.536C1299.51 836.037 1299.37 836.485 1299.09 836.88C1298.82 837.275 1298.42 837.584 1297.91 837.808C1297.41 838.032 1296.82 838.144 1296.13 838.144ZM1307.4 822.896L1303.05 840.8H1301.26L1305.59 822.896H1307.4ZM1313.33 826.88C1314.52 826.88 1315.55 827.109 1316.44 827.568C1317.33 828.016 1318.02 828.667 1318.5 829.52C1318.99 830.363 1319.24 831.349 1319.24 832.48C1319.24 833.611 1318.99 834.592 1318.5 835.424C1318.02 836.256 1317.33 836.896 1316.44 837.344C1315.55 837.781 1314.52 838 1313.33 838H1309.7V826.88H1313.33ZM1313.33 836.512C1314.63 836.512 1315.63 836.16 1316.32 835.456C1317.02 834.752 1317.36 833.76 1317.36 832.48C1317.36 831.189 1317.02 830.181 1316.32 829.456C1315.63 828.731 1314.63 828.368 1313.33 828.368H1311.52V836.512H1313.33ZM1329.12 833.376C1329.12 833.707 1329.1 834.005 1329.06 834.272H1322.32C1322.38 834.976 1322.64 835.541 1323.11 835.968C1323.58 836.395 1324.15 836.608 1324.84 836.608C1325.82 836.608 1326.51 836.197 1326.92 835.376H1328.88C1328.62 836.187 1328.13 836.853 1327.43 837.376C1326.73 837.888 1325.87 838.144 1324.84 838.144C1323.99 838.144 1323.24 837.957 1322.56 837.584C1321.9 837.2 1321.38 836.667 1321 835.984C1320.62 835.291 1320.44 834.491 1320.44 833.584C1320.44 832.677 1320.62 831.883 1320.98 831.2C1321.35 830.507 1321.87 829.973 1322.53 829.6C1323.2 829.227 1323.97 829.04 1324.84 829.04C1325.67 829.04 1326.41 829.221 1327.06 829.584C1327.71 829.947 1328.22 830.459 1328.58 831.12C1328.94 831.771 1329.12 832.523 1329.12 833.376ZM1327.22 832.8C1327.21 832.128 1326.97 831.589 1326.5 831.184C1326.03 830.779 1325.45 830.576 1324.76 830.576C1324.13 830.576 1323.59 830.779 1323.14 831.184C1322.69 831.579 1322.43 832.117 1322.34 832.8H1327.22ZM1330.31 833.584C1330.31 832.677 1330.49 831.883 1330.85 831.2C1331.23 830.507 1331.74 829.973 1332.39 829.6C1333.04 829.227 1333.79 829.04 1334.63 829.04C1335.7 829.04 1336.58 829.296 1337.27 829.808C1337.97 830.309 1338.45 831.029 1338.69 831.968H1336.73C1336.57 831.531 1336.31 831.189 1335.96 830.944C1335.61 830.699 1335.16 830.576 1334.63 830.576C1333.88 830.576 1333.29 830.843 1332.84 831.376C1332.4 831.899 1332.18 832.635 1332.18 833.584C1332.18 834.533 1332.4 835.275 1332.84 835.808C1333.29 836.341 1333.88 836.608 1334.63 836.608C1335.69 836.608 1336.39 836.144 1336.73 835.216H1338.69C1338.44 836.112 1337.96 836.827 1337.25 837.36C1336.55 837.883 1335.68 838.144 1334.63 838.144C1333.79 838.144 1333.04 837.957 1332.39 837.584C1331.74 837.2 1331.23 836.667 1330.85 835.984C1330.49 835.291 1330.31 834.491 1330.31 833.584ZM1344 833.6L1348.06 838H1345.6L1342.34 834.208V838H1340.51V826.16H1342.34V833.04L1345.54 829.184H1348.06L1344 833.6ZM1352.57 838.144C1351.88 838.144 1351.25 838.021 1350.7 837.776C1350.16 837.52 1349.72 837.179 1349.4 836.752C1349.08 836.315 1348.91 835.829 1348.89 835.296H1350.78C1350.81 835.669 1350.99 835.984 1351.31 836.24C1351.64 836.485 1352.05 836.608 1352.54 836.608C1353.05 836.608 1353.45 836.512 1353.72 836.32C1354.01 836.117 1354.16 835.861 1354.16 835.552C1354.16 835.221 1354 834.976 1353.68 834.816C1353.37 834.656 1352.87 834.48 1352.19 834.288C1351.53 834.107 1350.99 833.931 1350.57 833.76C1350.16 833.589 1349.79 833.328 1349.48 832.976C1349.19 832.624 1349.04 832.16 1349.04 831.584C1349.04 831.115 1349.17 830.688 1349.45 830.304C1349.73 829.909 1350.12 829.6 1350.64 829.376C1351.16 829.152 1351.76 829.04 1352.43 829.04C1353.43 829.04 1354.24 829.296 1354.84 829.808C1355.46 830.309 1355.79 830.997 1355.84 831.872H1354.01C1353.98 831.477 1353.82 831.163 1353.53 830.928C1353.24 830.693 1352.85 830.576 1352.36 830.576C1351.88 830.576 1351.52 830.667 1351.26 830.848C1351 831.029 1350.88 831.269 1350.88 831.568C1350.88 831.803 1350.96 832 1351.13 832.16C1351.3 832.32 1351.51 832.448 1351.76 832.544C1352 832.629 1352.36 832.741 1352.84 832.88C1353.48 833.051 1354.01 833.227 1354.41 833.408C1354.83 833.579 1355.19 833.835 1355.48 834.176C1355.78 834.517 1355.94 834.971 1355.95 835.536C1355.95 836.037 1355.81 836.485 1355.53 836.88C1355.25 837.275 1354.86 837.584 1354.35 837.808C1353.85 838.032 1353.25 838.144 1352.57 838.144Z" fill="#1F44DD"/>
<rect x="1227.5" y="810.5" width="153" height="43" rx="21.5" stroke="#D2DAF8"/>
</g>
<rect x="956.5" y="440.5" width="121" height="43" rx="21.5" fill="white"/>
<path d="M980.592 462.416C980.592 461.328 980.843 460.352 981.344 459.488C981.856 458.624 982.544 457.952 983.408 457.472C984.283 456.981 985.237 456.736 986.272 456.736C987.456 456.736 988.507 457.029 989.424 457.616C990.352 458.192 991.024 459.013 991.44 460.08H989.248C988.96 459.493 988.56 459.056 988.048 458.768C987.536 458.48 986.944 458.336 986.272 458.336C985.536 458.336 984.88 458.501 984.304 458.832C983.728 459.163 983.275 459.637 982.944 460.256C982.624 460.875 982.464 461.595 982.464 462.416C982.464 463.237 982.624 463.957 982.944 464.576C983.275 465.195 983.728 465.675 984.304 466.016C984.88 466.347 985.536 466.512 986.272 466.512C986.944 466.512 987.536 466.368 988.048 466.08C988.56 465.792 988.96 465.355 989.248 464.768H991.44C991.024 465.835 990.352 466.656 989.424 467.232C988.507 467.808 987.456 468.096 986.272 468.096C985.227 468.096 984.272 467.856 983.408 467.376C982.544 466.885 981.856 466.208 981.344 465.344C980.843 464.48 980.592 463.504 980.592 462.416ZM992.967 463.552C992.967 462.667 993.148 461.883 993.511 461.2C993.884 460.517 994.386 459.989 995.015 459.616C995.655 459.232 996.359 459.04 997.127 459.04C997.82 459.04 998.423 459.179 998.935 459.456C999.458 459.723 999.874 460.059 1000.18 460.464V459.184H1002.02V468H1000.18V466.688C999.874 467.104 999.452 467.451 998.919 467.728C998.386 468.005 997.778 468.144 997.095 468.144C996.338 468.144 995.644 467.952 995.015 467.568C994.386 467.173 993.884 466.629 993.511 465.936C993.148 465.232 992.967 464.437 992.967 463.552ZM1000.18 463.584C1000.18 462.976 1000.06 462.448 999.799 462C999.554 461.552 999.228 461.211 998.823 460.976C998.418 460.741 997.98 460.624 997.511 460.624C997.042 460.624 996.604 460.741 996.199 460.976C995.794 461.2 995.463 461.536 995.207 461.984C994.962 462.421 994.839 462.944 994.839 463.552C994.839 464.16 994.962 464.693 995.207 465.152C995.463 465.611 995.794 465.963 996.199 466.208C996.615 466.443 997.052 466.56 997.511 466.56C997.98 466.56 998.418 466.443 998.823 466.208C999.228 465.973 999.554 465.632 999.799 465.184C1000.06 464.725 1000.18 464.192 1000.18 463.584ZM1006.24 460.496C1006.55 460.069 1006.97 459.723 1007.51 459.456C1008.05 459.179 1008.65 459.04 1009.31 459.04C1010.09 459.04 1010.8 459.227 1011.43 459.6C1012.06 459.973 1012.55 460.507 1012.91 461.2C1013.28 461.883 1013.46 462.667 1013.46 463.552C1013.46 464.437 1013.28 465.232 1012.91 465.936C1012.55 466.629 1012.05 467.173 1011.41 467.568C1010.78 467.952 1010.08 468.144 1009.31 468.144C1008.63 468.144 1008.02 468.011 1007.49 467.744C1006.97 467.477 1006.55 467.136 1006.24 466.72V468H1004.42V456.16H1006.24V460.496ZM1011.6 463.552C1011.6 462.944 1011.47 462.421 1011.22 461.984C1010.97 461.536 1010.64 461.2 1010.23 460.976C1009.82 460.741 1009.38 460.624 1008.91 460.624C1008.46 460.624 1008.02 460.741 1007.6 460.976C1007.2 461.211 1006.87 461.552 1006.61 462C1006.37 462.448 1006.24 462.976 1006.24 463.584C1006.24 464.192 1006.37 464.725 1006.61 465.184C1006.87 465.632 1007.2 465.973 1007.6 466.208C1008.02 466.443 1008.46 466.56 1008.91 466.56C1009.38 466.56 1009.82 466.443 1010.23 466.208C1010.64 465.963 1010.97 465.611 1011.22 465.152C1011.47 464.693 1011.6 464.16 1011.6 463.552ZM1016.19 458.016C1015.86 458.016 1015.58 457.904 1015.36 457.68C1015.13 457.456 1015.02 457.179 1015.02 456.848C1015.02 456.517 1015.13 456.24 1015.36 456.016C1015.58 455.792 1015.86 455.68 1016.19 455.68C1016.51 455.68 1016.78 455.792 1017.01 456.016C1017.23 456.24 1017.34 456.517 1017.34 456.848C1017.34 457.179 1017.23 457.456 1017.01 457.68C1016.78 457.904 1016.51 458.016 1016.19 458.016ZM1017.09 459.184V468H1015.26V459.184H1017.09ZM1023.93 459.04C1024.62 459.04 1025.24 459.184 1025.79 459.472C1026.34 459.76 1026.77 460.187 1027.08 460.752C1027.39 461.317 1027.55 462 1027.55 462.8V468H1025.74V463.072C1025.74 462.283 1025.54 461.68 1025.15 461.264C1024.75 460.837 1024.21 460.624 1023.53 460.624C1022.85 460.624 1022.3 460.837 1021.9 461.264C1021.5 461.68 1021.31 462.283 1021.31 463.072V468H1019.48V459.184H1021.31V460.192C1021.6 459.829 1021.98 459.547 1022.44 459.344C1022.91 459.141 1023.41 459.04 1023.93 459.04ZM1037.95 463.376C1037.95 463.707 1037.93 464.005 1037.89 464.272H1031.15C1031.21 464.976 1031.47 465.541 1031.94 465.968C1032.41 466.395 1032.98 466.608 1033.66 466.608C1034.65 466.608 1035.34 466.197 1035.74 465.376H1037.71C1037.45 466.187 1036.96 466.853 1036.26 467.376C1035.56 467.888 1034.7 468.144 1033.66 468.144C1032.82 468.144 1032.06 467.957 1031.39 467.584C1030.73 467.2 1030.21 466.667 1029.82 465.984C1029.45 465.291 1029.26 464.491 1029.26 463.584C1029.26 462.677 1029.45 461.883 1029.81 461.2C1030.18 460.507 1030.7 459.973 1031.36 459.6C1032.03 459.227 1032.8 459.04 1033.66 459.04C1034.5 459.04 1035.24 459.221 1035.89 459.584C1036.54 459.947 1037.05 460.459 1037.41 461.12C1037.77 461.771 1037.95 462.523 1037.95 463.376ZM1036.05 462.8C1036.04 462.128 1035.8 461.589 1035.33 461.184C1034.86 460.779 1034.28 460.576 1033.58 460.576C1032.95 460.576 1032.42 460.779 1031.97 461.184C1031.52 461.579 1031.25 462.117 1031.17 462.8H1036.05ZM1041.87 460.672V465.552C1041.87 465.883 1041.95 466.123 1042.1 466.272C1042.26 466.411 1042.53 466.48 1042.9 466.48H1044.02V468H1042.58C1041.76 468 1041.13 467.808 1040.69 467.424C1040.25 467.04 1040.03 466.416 1040.03 465.552V460.672H1038.99V459.184H1040.03V456.992H1041.87V459.184H1044.02V460.672H1041.87ZM1048.9 468.144C1048.21 468.144 1047.58 468.021 1047.03 467.776C1046.48 467.52 1046.05 467.179 1045.73 466.752C1045.41 466.315 1045.24 465.829 1045.22 465.296H1047.11C1047.14 465.669 1047.32 465.984 1047.64 466.24C1047.97 466.485 1048.38 466.608 1048.87 466.608C1049.38 466.608 1049.77 466.512 1050.05 466.32C1050.34 466.117 1050.48 465.861 1050.48 465.552C1050.48 465.221 1050.32 464.976 1050 464.816C1049.69 464.656 1049.2 464.48 1048.52 464.288C1047.85 464.107 1047.32 463.931 1046.9 463.76C1046.48 463.589 1046.12 463.328 1045.81 462.976C1045.51 462.624 1045.36 462.16 1045.36 461.584C1045.36 461.115 1045.5 460.688 1045.78 460.304C1046.06 459.909 1046.45 459.6 1046.96 459.376C1047.49 459.152 1048.08 459.04 1048.76 459.04C1049.76 459.04 1050.56 459.296 1051.17 459.808C1051.79 460.309 1052.12 460.997 1052.16 461.872H1050.34C1050.31 461.477 1050.15 461.163 1049.86 460.928C1049.57 460.693 1049.18 460.576 1048.69 460.576C1048.21 460.576 1047.84 460.667 1047.59 460.848C1047.33 461.029 1047.2 461.269 1047.2 461.568C1047.2 461.803 1047.29 462 1047.46 462.16C1047.63 462.32 1047.84 462.448 1048.08 462.544C1048.33 462.629 1048.69 462.741 1049.17 462.88C1049.81 463.051 1050.33 463.227 1050.74 463.408C1051.16 463.579 1051.51 463.835 1051.81 464.176C1052.11 464.517 1052.27 464.971 1052.28 465.536C1052.28 466.037 1052.14 466.485 1051.86 466.88C1051.58 467.275 1051.19 467.584 1050.68 467.808C1050.17 468.032 1049.58 468.144 1048.9 468.144Z" fill="#1F44DD"/>
<rect x="956.5" y="440.5" width="121" height="43" rx="21.5" stroke="#D2DAF8"/>
<rect x="382.5" y="440.5" width="107" height="43" rx="21.5" fill="white"/>
<path d="M415.248 460.08C414.96 459.525 414.56 459.109 414.048 458.832C413.536 458.544 412.944 458.4 412.272 458.4C411.536 458.4 410.88 458.565 410.304 458.896C409.728 459.227 409.275 459.696 408.944 460.304C408.624 460.912 408.464 461.616 408.464 462.416C408.464 463.216 408.624 463.925 408.944 464.544C409.275 465.152 409.728 465.621 410.304 465.952C410.88 466.283 411.536 466.448 412.272 466.448C413.264 466.448 414.069 466.171 414.688 465.616C415.307 465.061 415.685 464.309 415.824 463.36H411.648V461.904H417.776V463.328C417.659 464.192 417.349 464.987 416.848 465.712C416.357 466.437 415.712 467.019 414.912 467.456C414.123 467.883 413.243 468.096 412.272 468.096C411.227 468.096 410.272 467.856 409.408 467.376C408.544 466.885 407.856 466.208 407.344 465.344C406.843 464.48 406.592 463.504 406.592 462.416C406.592 461.328 406.843 460.352 407.344 459.488C407.856 458.624 408.544 457.952 409.408 457.472C410.283 456.981 411.237 456.736 412.272 456.736C413.456 456.736 414.507 457.029 415.424 457.616C416.352 458.192 417.024 459.013 417.44 460.08H415.248ZM427.559 459.184V468H425.735V466.96C425.447 467.323 425.068 467.611 424.599 467.824C424.14 468.027 423.65 468.128 423.127 468.128C422.434 468.128 421.81 467.984 421.255 467.696C420.711 467.408 420.279 466.981 419.959 466.416C419.65 465.851 419.495 465.168 419.495 464.368V459.184H421.303V464.096C421.303 464.885 421.5 465.493 421.895 465.92C422.29 466.336 422.828 466.544 423.511 466.544C424.194 466.544 424.732 466.336 425.127 465.92C425.532 465.493 425.735 464.885 425.735 464.096V459.184H427.559ZM432.094 460.672V465.552C432.094 465.883 432.168 466.123 432.318 466.272C432.478 466.411 432.744 466.48 433.118 466.48H434.238V468H432.798C431.976 468 431.347 467.808 430.91 467.424C430.472 467.04 430.254 466.416 430.254 465.552V460.672H429.214V459.184H430.254V456.992H432.094V459.184H434.238V460.672H432.094ZM438.047 460.672V465.552C438.047 465.883 438.121 466.123 438.271 466.272C438.431 466.411 438.697 466.48 439.071 466.48H440.191V468H438.751C437.929 468 437.3 467.808 436.863 467.424C436.425 467.04 436.207 466.416 436.207 465.552V460.672H435.167V459.184H436.207V456.992H438.047V459.184H440.191V460.672H438.047ZM449.952 463.376C449.952 463.707 449.931 464.005 449.888 464.272H443.152C443.205 464.976 443.467 465.541 443.936 465.968C444.405 466.395 444.981 466.608 445.664 466.608C446.645 466.608 447.339 466.197 447.744 465.376H449.712C449.445 466.187 448.96 466.853 448.256 467.376C447.563 467.888 446.699 468.144 445.664 468.144C444.821 468.144 444.064 467.957 443.392 467.584C442.731 467.2 442.208 466.667 441.824 465.984C441.451 465.291 441.264 464.491 441.264 463.584C441.264 462.677 441.445 461.883 441.808 461.2C442.181 460.507 442.699 459.973 443.36 459.6C444.032 459.227 444.8 459.04 445.664 459.04C446.496 459.04 447.237 459.221 447.888 459.584C448.539 459.947 449.045 460.459 449.408 461.12C449.771 461.771 449.952 462.523 449.952 463.376ZM448.048 462.8C448.037 462.128 447.797 461.589 447.328 461.184C446.859 460.779 446.277 460.576 445.584 460.576C444.955 460.576 444.416 460.779 443.968 461.184C443.52 461.579 443.253 462.117 443.168 462.8H448.048ZM453.571 460.464C453.838 460.016 454.19 459.669 454.627 459.424C455.075 459.168 455.603 459.04 456.211 459.04V460.928H455.747C455.032 460.928 454.488 461.109 454.115 461.472C453.752 461.835 453.571 462.464 453.571 463.36V468H451.747V459.184H453.571V460.464ZM461.088 468.144C460.394 468.144 459.77 468.021 459.216 467.776C458.672 467.52 458.24 467.179 457.92 466.752C457.6 466.315 457.429 465.829 457.408 465.296H459.296C459.328 465.669 459.504 465.984 459.824 466.24C460.154 466.485 460.565 466.608 461.056 466.608C461.568 466.608 461.962 466.512 462.24 466.32C462.528 466.117 462.672 465.861 462.672 465.552C462.672 465.221 462.512 464.976 462.192 464.816C461.882 464.656 461.386 464.48 460.704 464.288C460.042 464.107 459.504 463.931 459.088 463.76C458.672 463.589 458.309 463.328 458 462.976C457.701 462.624 457.552 462.16 457.552 461.584C457.552 461.115 457.69 460.688 457.968 460.304C458.245 459.909 458.64 459.6 459.152 459.376C459.674 459.152 460.272 459.04 460.944 459.04C461.946 459.04 462.752 459.296 463.36 459.808C463.978 460.309 464.309 460.997 464.352 461.872H462.528C462.496 461.477 462.336 461.163 462.048 460.928C461.76 460.693 461.37 460.576 460.88 460.576C460.4 460.576 460.032 460.667 459.776 460.848C459.52 461.029 459.392 461.269 459.392 461.568C459.392 461.803 459.477 462 459.648 462.16C459.818 462.32 460.026 462.448 460.272 462.544C460.517 462.629 460.88 462.741 461.36 462.88C462 463.051 462.522 463.227 462.928 463.408C463.344 463.579 463.701 463.835 464 464.176C464.298 464.517 464.453 464.971 464.464 465.536C464.464 466.037 464.325 466.485 464.048 466.88C463.77 467.275 463.376 467.584 462.864 467.808C462.362 468.032 461.77 468.144 461.088 468.144Z" fill="#1F44DD"/>
<rect x="382.5" y="440.5" width="107" height="43" rx="21.5" stroke="#D2DAF8"/>
<rect x="1010.5" y="854.5" width="112" height="43" rx="21.5" fill="white"/>
<path d="M1041.74 870.88V872.368H1037.02V875.648H1040.7V877.136H1037.02V882H1035.2V870.88H1041.74ZM1045.26 870.16V882H1043.43V870.16H1045.26ZM1051.48 882.144C1050.65 882.144 1049.89 881.957 1049.22 881.584C1048.55 881.2 1048.02 880.667 1047.64 879.984C1047.25 879.291 1047.06 878.491 1047.06 877.584C1047.06 876.688 1047.26 875.893 1047.65 875.2C1048.05 874.507 1048.59 873.973 1049.27 873.6C1049.95 873.227 1050.71 873.04 1051.56 873.04C1052.4 873.04 1053.16 873.227 1053.85 873.6C1054.53 873.973 1055.07 874.507 1055.46 875.2C1055.86 875.893 1056.05 876.688 1056.05 877.584C1056.05 878.48 1055.85 879.275 1055.45 879.968C1055.04 880.661 1054.49 881.2 1053.78 881.584C1053.09 881.957 1052.32 882.144 1051.48 882.144ZM1051.48 880.56C1051.95 880.56 1052.38 880.448 1052.79 880.224C1053.21 880 1053.54 879.664 1053.8 879.216C1054.05 878.768 1054.18 878.224 1054.18 877.584C1054.18 876.944 1054.06 876.405 1053.81 875.968C1053.57 875.52 1053.24 875.184 1052.84 874.96C1052.43 874.736 1051.99 874.624 1051.53 874.624C1051.06 874.624 1050.62 874.736 1050.21 874.96C1049.82 875.184 1049.5 875.52 1049.27 875.968C1049.03 876.405 1048.92 876.944 1048.92 877.584C1048.92 878.533 1049.16 879.269 1049.64 879.792C1050.13 880.304 1050.74 880.56 1051.48 880.56ZM1061.68 882.144C1060.85 882.144 1060.1 881.957 1059.42 881.584C1058.75 881.2 1058.22 880.667 1057.84 879.984C1057.46 879.291 1057.26 878.491 1057.26 877.584C1057.26 876.688 1057.46 875.893 1057.86 875.2C1058.25 874.507 1058.79 873.973 1059.47 873.6C1060.15 873.227 1060.92 873.04 1061.76 873.04C1062.6 873.04 1063.37 873.227 1064.05 873.6C1064.73 873.973 1065.27 874.507 1065.66 875.2C1066.06 875.893 1066.26 876.688 1066.26 877.584C1066.26 878.48 1066.05 879.275 1065.65 879.968C1065.24 880.661 1064.69 881.2 1063.98 881.584C1063.29 881.957 1062.52 882.144 1061.68 882.144ZM1061.68 880.56C1062.15 880.56 1062.59 880.448 1062.99 880.224C1063.41 880 1063.74 879.664 1064 879.216C1064.26 878.768 1064.38 878.224 1064.38 877.584C1064.38 876.944 1064.26 876.405 1064.02 875.968C1063.77 875.52 1063.45 875.184 1063.04 874.96C1062.63 874.736 1062.2 874.624 1061.73 874.624C1061.26 874.624 1060.82 874.736 1060.42 874.96C1060.02 875.184 1059.71 875.52 1059.47 875.968C1059.24 876.405 1059.12 876.944 1059.12 877.584C1059.12 878.533 1059.36 879.269 1059.84 879.792C1060.33 880.304 1060.94 880.56 1061.68 880.56ZM1069.88 874.464C1070.15 874.016 1070.5 873.669 1070.94 873.424C1071.39 873.168 1071.92 873.04 1072.52 873.04V874.928H1072.06C1071.34 874.928 1070.8 875.109 1070.43 875.472C1070.06 875.835 1069.88 876.464 1069.88 877.36V882H1068.06V873.184H1069.88V874.464ZM1075.13 872.016C1074.8 872.016 1074.52 871.904 1074.3 871.68C1074.07 871.456 1073.96 871.179 1073.96 870.848C1073.96 870.517 1074.07 870.24 1074.3 870.016C1074.52 869.792 1074.8 869.68 1075.13 869.68C1075.45 869.68 1075.72 869.792 1075.94 870.016C1076.17 870.24 1076.28 870.517 1076.28 870.848C1076.28 871.179 1076.17 871.456 1075.94 871.68C1075.72 871.904 1075.45 872.016 1075.13 872.016ZM1076.02 873.184V882H1074.2V873.184H1076.02ZM1082.87 873.04C1083.56 873.04 1084.18 873.184 1084.72 873.472C1085.28 873.76 1085.71 874.187 1086.02 874.752C1086.33 875.317 1086.48 876 1086.48 876.8V882H1084.67V877.072C1084.67 876.283 1084.48 875.68 1084.08 875.264C1083.69 874.837 1083.15 874.624 1082.47 874.624C1081.78 874.624 1081.24 874.837 1080.83 875.264C1080.44 875.68 1080.24 876.283 1080.24 877.072V882H1078.42V873.184H1080.24V874.192C1080.54 873.829 1080.92 873.547 1081.38 873.344C1081.85 873.141 1082.34 873.04 1082.87 873.04ZM1092.36 873.04C1093.04 873.04 1093.65 873.179 1094.17 873.456C1094.7 873.723 1095.12 874.059 1095.42 874.464V873.184H1097.26V882.144C1097.26 882.955 1097.09 883.675 1096.75 884.304C1096.4 884.944 1095.91 885.445 1095.26 885.808C1094.62 886.171 1093.85 886.352 1092.95 886.352C1091.76 886.352 1090.77 886.069 1089.98 885.504C1089.19 884.949 1088.74 884.192 1088.63 883.232H1090.44C1090.58 883.691 1090.87 884.059 1091.32 884.336C1091.78 884.624 1092.32 884.768 1092.95 884.768C1093.69 884.768 1094.28 884.544 1094.73 884.096C1095.19 883.648 1095.42 882.997 1095.42 882.144V880.672C1095.11 881.088 1094.69 881.44 1094.15 881.728C1093.63 882.005 1093.03 882.144 1092.36 882.144C1091.59 882.144 1090.89 881.952 1090.25 881.568C1089.62 881.173 1089.12 880.629 1088.75 879.936C1088.38 879.232 1088.2 878.437 1088.2 877.552C1088.2 876.667 1088.38 875.883 1088.75 875.2C1089.12 874.517 1089.62 873.989 1090.25 873.616C1090.89 873.232 1091.59 873.04 1092.36 873.04ZM1095.42 877.584C1095.42 876.976 1095.29 876.448 1095.03 876C1094.79 875.552 1094.46 875.211 1094.06 874.976C1093.65 874.741 1093.21 874.624 1092.75 874.624C1092.28 874.624 1091.84 874.741 1091.43 874.976C1091.03 875.2 1090.7 875.536 1090.44 875.984C1090.2 876.421 1090.07 876.944 1090.07 877.552C1090.07 878.16 1090.2 878.693 1090.44 879.152C1090.7 879.611 1091.03 879.963 1091.43 880.208C1091.85 880.443 1092.29 880.56 1092.75 880.56C1093.21 880.56 1093.65 880.443 1094.06 880.208C1094.46 879.973 1094.79 879.632 1095.03 879.184C1095.29 878.725 1095.42 878.192 1095.42 877.584Z" fill="#1F44DD"/>
<rect x="1010.5" y="854.5" width="112" height="43" rx="21.5" stroke="#D2DAF8"/>
<g opacity="0.8">
<rect x="33.5" y="759.5" width="184" height="43" rx="21.5" fill="white"/>
<path d="M64.328 787L60.024 782.024V787H58.2V775.88H60.024V780.952L64.344 775.88H66.632L61.8 781.448L66.712 787H64.328ZM69.253 777.016C68.9223 777.016 68.645 776.904 68.421 776.68C68.197 776.456 68.085 776.179 68.085 775.848C68.085 775.517 68.197 775.24 68.421 775.016C68.645 774.792 68.9223 774.68 69.253 774.68C69.573 774.68 69.845 774.792 70.069 775.016C70.293 775.24 70.405 775.517 70.405 775.848C70.405 776.179 70.293 776.456 70.069 776.68C69.845 776.904 69.573 777.016 69.253 777.016ZM70.149 778.184V787H68.325V778.184H70.149ZM74.6718 779.672V784.552C74.6718 784.883 74.7464 785.123 74.8958 785.272C75.0558 785.411 75.3224 785.48 75.6958 785.48H76.8158V787H75.3758C74.5544 787 73.9251 786.808 73.4878 786.424C73.0504 786.04 72.8318 785.416 72.8318 784.552V779.672H71.7918V778.184H72.8318V775.992H74.6718V778.184H76.8158V779.672H74.6718ZM77.8889 782.584C77.8889 781.677 78.0702 780.883 78.4329 780.2C78.8062 779.507 79.3182 778.973 79.9689 778.6C80.6195 778.227 81.3662 778.04 82.2089 778.04C83.2755 778.04 84.1555 778.296 84.8489 778.808C85.5529 779.309 86.0275 780.029 86.2729 780.968H84.3049C84.1449 780.531 83.8889 780.189 83.5369 779.944C83.1849 779.699 82.7422 779.576 82.2089 779.576C81.4622 779.576 80.8649 779.843 80.4169 780.376C79.9795 780.899 79.7609 781.635 79.7609 782.584C79.7609 783.533 79.9795 784.275 80.4169 784.808C80.8649 785.341 81.4622 785.608 82.2089 785.608C83.2649 785.608 83.9635 785.144 84.3049 784.216H86.2729C86.0169 785.112 85.5369 785.827 84.8329 786.36C84.1289 786.883 83.2542 787.144 82.2089 787.144C81.3662 787.144 80.6195 786.957 79.9689 786.584C79.3182 786.2 78.8062 785.667 78.4329 784.984C78.0702 784.291 77.8889 783.491 77.8889 782.584ZM92.6506 778.04C93.3226 778.04 93.92 778.184 94.4426 778.472C94.976 778.76 95.392 779.187 95.6906 779.752C96 780.317 96.1546 781 96.1546 781.8V787H94.3466V782.072C94.3466 781.283 94.1493 780.68 93.7546 780.264C93.36 779.837 92.8213 779.624 92.1386 779.624C91.456 779.624 90.912 779.837 90.5066 780.264C90.112 780.68 89.9146 781.283 89.9146 782.072V787H88.0906V775.16H89.9146V779.208C90.224 778.835 90.6133 778.547 91.0826 778.344C91.5626 778.141 92.0853 778.04 92.6506 778.04ZM106.561 782.376C106.561 782.707 106.54 783.005 106.497 783.272H99.7613C99.8146 783.976 100.076 784.541 100.545 784.968C101.015 785.395 101.591 785.608 102.273 785.608C103.255 785.608 103.948 785.197 104.353 784.376H106.321C106.055 785.187 105.569 785.853 104.865 786.376C104.172 786.888 103.308 787.144 102.273 787.144C101.431 787.144 100.673 786.957 100.001 786.584C99.3399 786.2 98.8173 785.667 98.4333 784.984C98.0599 784.291 97.8733 783.491 97.8733 782.584C97.8733 781.677 98.0546 780.883 98.4173 780.2C98.7906 779.507 99.3079 778.973 99.9693 778.6C100.641 778.227 101.409 778.04 102.273 778.04C103.105 778.04 103.847 778.221 104.497 778.584C105.148 778.947 105.655 779.459 106.017 780.12C106.38 780.771 106.561 781.523 106.561 782.376ZM104.657 781.8C104.647 781.128 104.407 780.589 103.937 780.184C103.468 779.779 102.887 779.576 102.193 779.576C101.564 779.576 101.025 779.779 100.577 780.184C100.129 780.579 99.8626 781.117 99.7773 781.8H104.657ZM112.804 778.04C113.498 778.04 114.116 778.184 114.66 778.472C115.215 778.76 115.647 779.187 115.956 779.752C116.266 780.317 116.42 781 116.42 781.8V787H114.612V782.072C114.612 781.283 114.415 780.68 114.02 780.264C113.626 779.837 113.087 779.624 112.404 779.624C111.722 779.624 111.178 779.837 110.772 780.264C110.378 780.68 110.18 781.283 110.18 782.072V787H108.356V778.184H110.18V779.192C110.479 778.829 110.858 778.547 111.316 778.344C111.786 778.141 112.282 778.04 112.804 778.04ZM128.679 787L126.119 782.552H124.727V787H122.903V775.88H126.743C127.596 775.88 128.316 776.029 128.903 776.328C129.5 776.627 129.943 777.027 130.231 777.528C130.53 778.029 130.679 778.589 130.679 779.208C130.679 779.933 130.466 780.595 130.039 781.192C129.623 781.779 128.978 782.179 128.103 782.392L130.855 787H128.679ZM124.727 781.096H126.743C127.426 781.096 127.938 780.925 128.279 780.584C128.631 780.243 128.807 779.784 128.807 779.208C128.807 778.632 128.636 778.184 128.295 777.864C127.954 777.533 127.436 777.368 126.743 777.368H124.727V781.096ZM141.093 782.376C141.093 782.707 141.071 783.005 141.029 783.272H134.293C134.346 783.976 134.607 784.541 135.077 784.968C135.546 785.395 136.122 785.608 136.805 785.608C137.786 785.608 138.479 785.197 138.885 784.376H140.852C140.586 785.187 140.101 785.853 139.397 786.376C138.703 786.888 137.839 787.144 136.805 787.144C135.962 787.144 135.205 786.957 134.533 786.584C133.871 786.2 133.349 785.667 132.965 784.984C132.591 784.291 132.405 783.491 132.405 782.584C132.405 781.677 132.586 780.883 132.949 780.2C133.322 779.507 133.839 778.973 134.501 778.6C135.173 778.227 135.941 778.04 136.805 778.04C137.637 778.04 138.378 778.221 139.029 778.584C139.679 778.947 140.186 779.459 140.549 780.12C140.911 780.771 141.093 781.523 141.093 782.376ZM139.189 781.8C139.178 781.128 138.938 780.589 138.469 780.184C137.999 779.779 137.418 779.576 136.725 779.576C136.095 779.576 135.557 779.779 135.109 780.184C134.661 780.579 134.394 781.117 134.309 781.8H139.189ZM153.56 778.04C154.253 778.04 154.872 778.184 155.416 778.472C155.97 778.76 156.402 779.187 156.712 779.752C157.032 780.317 157.192 781 157.192 781.8V787H155.384V782.072C155.384 781.283 155.186 780.68 154.792 780.264C154.397 779.837 153.858 779.624 153.176 779.624C152.493 779.624 151.949 779.837 151.544 780.264C151.149 780.68 150.952 781.283 150.952 782.072V787H149.144V782.072C149.144 781.283 148.946 780.68 148.552 780.264C148.157 779.837 147.618 779.624 146.936 779.624C146.253 779.624 145.709 779.837 145.304 780.264C144.909 780.68 144.712 781.283 144.712 782.072V787H142.888V778.184H144.712V779.192C145.01 778.829 145.389 778.547 145.848 778.344C146.306 778.141 146.797 778.04 147.32 778.04C148.024 778.04 148.653 778.189 149.208 778.488C149.762 778.787 150.189 779.219 150.488 779.784C150.754 779.251 151.17 778.829 151.736 778.52C152.301 778.2 152.909 778.04 153.56 778.04ZM163.337 787.144C162.505 787.144 161.753 786.957 161.081 786.584C160.409 786.2 159.881 785.667 159.497 784.984C159.113 784.291 158.921 783.491 158.921 782.584C158.921 781.688 159.118 780.893 159.513 780.2C159.907 779.507 160.446 778.973 161.129 778.6C161.811 778.227 162.574 778.04 163.417 778.04C164.259 778.04 165.022 778.227 165.705 778.6C166.387 778.973 166.926 779.507 167.321 780.2C167.715 780.893 167.913 781.688 167.913 782.584C167.913 783.48 167.71 784.275 167.305 784.968C166.899 785.661 166.345 786.2 165.641 786.584C164.947 786.957 164.179 787.144 163.337 787.144ZM163.337 785.56C163.806 785.56 164.243 785.448 164.649 785.224C165.065 785 165.401 784.664 165.657 784.216C165.913 783.768 166.041 783.224 166.041 782.584C166.041 781.944 165.918 781.405 165.673 780.968C165.427 780.52 165.102 780.184 164.697 779.96C164.291 779.736 163.854 779.624 163.385 779.624C162.915 779.624 162.478 779.736 162.073 779.96C161.678 780.184 161.363 780.52 161.129 780.968C160.894 781.405 160.777 781.944 160.777 782.584C160.777 783.533 161.017 784.269 161.497 784.792C161.987 785.304 162.601 785.56 163.337 785.56ZM169.108 782.552C169.108 781.667 169.289 780.883 169.652 780.2C170.025 779.517 170.526 778.989 171.156 778.616C171.796 778.232 172.505 778.04 173.284 778.04C173.86 778.04 174.425 778.168 174.98 778.424C175.545 778.669 175.993 779 176.324 779.416V775.16H178.164V787H176.324V785.672C176.025 786.099 175.609 786.451 175.076 786.728C174.553 787.005 173.95 787.144 173.268 787.144C172.5 787.144 171.796 786.952 171.156 786.568C170.526 786.173 170.025 785.629 169.652 784.936C169.289 784.232 169.108 783.437 169.108 782.552ZM176.324 782.584C176.324 781.976 176.196 781.448 175.94 781C175.694 780.552 175.369 780.211 174.964 779.976C174.558 779.741 174.121 779.624 173.652 779.624C173.182 779.624 172.745 779.741 172.34 779.976C171.934 780.2 171.604 780.536 171.348 780.984C171.102 781.421 170.98 781.944 170.98 782.552C170.98 783.16 171.102 783.693 171.348 784.152C171.604 784.611 171.934 784.963 172.34 785.208C172.756 785.443 173.193 785.56 173.652 785.56C174.121 785.56 174.558 785.443 174.964 785.208C175.369 784.973 175.694 784.632 175.94 784.184C176.196 783.725 176.324 783.192 176.324 782.584ZM188.639 782.376C188.639 782.707 188.618 783.005 188.575 783.272H181.839C181.893 783.976 182.154 784.541 182.623 784.968C183.093 785.395 183.669 785.608 184.351 785.608C185.333 785.608 186.026 785.197 186.431 784.376H188.399C188.133 785.187 187.647 785.853 186.943 786.376C186.25 786.888 185.386 787.144 184.351 787.144C183.509 787.144 182.751 786.957 182.079 786.584C181.418 786.2 180.895 785.667 180.511 784.984C180.138 784.291 179.951 783.491 179.951 782.584C179.951 781.677 180.133 780.883 180.495 780.2C180.869 779.507 181.386 778.973 182.047 778.6C182.719 778.227 183.487 778.04 184.351 778.04C185.183 778.04 185.925 778.221 186.575 778.584C187.226 778.947 187.733 779.459 188.095 780.12C188.458 780.771 188.639 781.523 188.639 782.376ZM186.735 781.8C186.725 781.128 186.485 780.589 186.015 780.184C185.546 779.779 184.965 779.576 184.271 779.576C183.642 779.576 183.103 779.779 182.655 780.184C182.207 780.579 181.941 781.117 181.855 781.8H186.735ZM192.258 775.16V787H190.434V775.16H192.258Z" fill="#1F44DD"/>
<rect x="33.5" y="759.5" width="184" height="43" rx="21.5" stroke="#D2DAF8"/>
</g>
<g opacity="0.6">
<rect x="1304.5" y="996.5" width="125" height="43" rx="21.5" fill="white"/>
<path d="M1336.98 1016.19C1336.98 1016.76 1336.84 1017.29 1336.58 1017.79C1336.31 1018.29 1335.88 1018.7 1335.3 1019.02C1334.71 1019.33 1333.96 1019.49 1333.04 1019.49H1331.02V1024H1329.2V1012.88H1333.04C1333.89 1012.88 1334.61 1013.03 1335.2 1013.33C1335.8 1013.62 1336.24 1014.01 1336.53 1014.51C1336.83 1015.01 1336.98 1015.57 1336.98 1016.19ZM1333.04 1018C1333.73 1018 1334.25 1017.85 1334.59 1017.54C1334.93 1017.22 1335.1 1016.77 1335.1 1016.19C1335.1 1014.98 1334.42 1014.37 1333.04 1014.37H1331.02V1018H1333.04ZM1340.54 1012.16V1024H1338.72V1012.16H1340.54ZM1350.92 1015.18V1024H1349.09V1022.96C1348.81 1023.32 1348.43 1023.61 1347.96 1023.82C1347.5 1024.03 1347.01 1024.13 1346.49 1024.13C1345.79 1024.13 1345.17 1023.98 1344.61 1023.7C1344.07 1023.41 1343.64 1022.98 1343.32 1022.42C1343.01 1021.85 1342.85 1021.17 1342.85 1020.37V1015.18H1344.66V1020.1C1344.66 1020.89 1344.86 1021.49 1345.25 1021.92C1345.65 1022.34 1346.19 1022.54 1346.87 1022.54C1347.55 1022.54 1348.09 1022.34 1348.49 1021.92C1348.89 1021.49 1349.09 1020.89 1349.09 1020.1V1015.18H1350.92ZM1364 1015.04C1364.69 1015.04 1365.31 1015.18 1365.85 1015.47C1366.41 1015.76 1366.84 1016.19 1367.15 1016.75C1367.47 1017.32 1367.63 1018 1367.63 1018.8V1024H1365.82V1019.07C1365.82 1018.28 1365.62 1017.68 1365.23 1017.26C1364.83 1016.84 1364.3 1016.62 1363.61 1016.62C1362.93 1016.62 1362.39 1016.84 1361.98 1017.26C1361.59 1017.68 1361.39 1018.28 1361.39 1019.07V1024H1359.58V1019.07C1359.58 1018.28 1359.38 1017.68 1358.99 1017.26C1358.59 1016.84 1358.06 1016.62 1357.37 1016.62C1356.69 1016.62 1356.15 1016.84 1355.74 1017.26C1355.35 1017.68 1355.15 1018.28 1355.15 1019.07V1024H1353.33V1015.18H1355.15V1016.19C1355.45 1015.83 1355.83 1015.55 1356.29 1015.34C1356.74 1015.14 1357.23 1015.04 1357.76 1015.04C1358.46 1015.04 1359.09 1015.19 1359.65 1015.49C1360.2 1015.79 1360.63 1016.22 1360.93 1016.78C1361.19 1016.25 1361.61 1015.83 1362.17 1015.52C1362.74 1015.2 1363.35 1015.04 1364 1015.04ZM1371.77 1016.5C1372.08 1016.07 1372.5 1015.72 1373.04 1015.46C1373.58 1015.18 1374.18 1015.04 1374.85 1015.04C1375.62 1015.04 1376.33 1015.23 1376.96 1015.6C1377.59 1015.97 1378.08 1016.51 1378.45 1017.2C1378.81 1017.88 1378.99 1018.67 1378.99 1019.55C1378.99 1020.44 1378.81 1021.23 1378.45 1021.94C1378.08 1022.63 1377.58 1023.17 1376.94 1023.57C1376.31 1023.95 1375.61 1024.14 1374.85 1024.14C1374.16 1024.14 1373.56 1024.01 1373.02 1023.74C1372.5 1023.48 1372.08 1023.14 1371.77 1022.72V1024H1369.95V1012.16H1371.77V1016.5ZM1377.13 1019.55C1377.13 1018.94 1377.01 1018.42 1376.75 1017.98C1376.5 1017.54 1376.17 1017.2 1375.76 1016.98C1375.35 1016.74 1374.92 1016.62 1374.45 1016.62C1373.99 1016.62 1373.55 1016.74 1373.13 1016.98C1372.73 1017.21 1372.4 1017.55 1372.14 1018C1371.9 1018.45 1371.77 1018.98 1371.77 1019.58C1371.77 1020.19 1371.9 1020.73 1372.14 1021.18C1372.4 1021.63 1372.73 1021.97 1373.13 1022.21C1373.55 1022.44 1373.99 1022.56 1374.45 1022.56C1374.92 1022.56 1375.35 1022.44 1375.76 1022.21C1376.17 1021.96 1376.5 1021.61 1376.75 1021.15C1377.01 1020.69 1377.13 1020.16 1377.13 1019.55ZM1381.72 1014.02C1381.39 1014.02 1381.11 1013.9 1380.89 1013.68C1380.67 1013.46 1380.55 1013.18 1380.55 1012.85C1380.55 1012.52 1380.67 1012.24 1380.89 1012.02C1381.11 1011.79 1381.39 1011.68 1381.72 1011.68C1382.04 1011.68 1382.31 1011.79 1382.54 1012.02C1382.76 1012.24 1382.87 1012.52 1382.87 1012.85C1382.87 1013.18 1382.76 1013.46 1382.54 1013.68C1382.31 1013.9 1382.04 1014.02 1381.72 1014.02ZM1382.62 1015.18V1024H1380.79V1015.18H1382.62ZM1389.46 1015.04C1390.15 1015.04 1390.77 1015.18 1391.32 1015.47C1391.87 1015.76 1392.3 1016.19 1392.61 1016.75C1392.92 1017.32 1393.08 1018 1393.08 1018.8V1024H1391.27V1019.07C1391.27 1018.28 1391.07 1017.68 1390.68 1017.26C1390.28 1016.84 1389.74 1016.62 1389.06 1016.62C1388.38 1016.62 1387.83 1016.84 1387.43 1017.26C1387.03 1017.68 1386.84 1018.28 1386.84 1019.07V1024H1385.01V1015.18H1386.84V1016.19C1387.14 1015.83 1387.51 1015.55 1387.97 1015.34C1388.44 1015.14 1388.94 1015.04 1389.46 1015.04ZM1398.96 1015.04C1399.64 1015.04 1400.24 1015.18 1400.76 1015.46C1401.3 1015.72 1401.71 1016.06 1402.01 1016.46V1015.18H1403.85V1024.14C1403.85 1024.95 1403.68 1025.67 1403.34 1026.3C1403 1026.94 1402.5 1027.45 1401.85 1027.81C1401.21 1028.17 1400.44 1028.35 1399.55 1028.35C1398.35 1028.35 1397.36 1028.07 1396.57 1027.5C1395.78 1026.95 1395.33 1026.19 1395.23 1025.23H1397.04C1397.17 1025.69 1397.47 1026.06 1397.92 1026.34C1398.37 1026.62 1398.92 1026.77 1399.55 1026.77C1400.28 1026.77 1400.88 1026.54 1401.32 1026.1C1401.78 1025.65 1402.01 1025 1402.01 1024.14V1022.67C1401.7 1023.09 1401.28 1023.44 1400.75 1023.73C1400.22 1024.01 1399.63 1024.14 1398.96 1024.14C1398.19 1024.14 1397.48 1023.95 1396.84 1023.57C1396.21 1023.17 1395.71 1022.63 1395.34 1021.94C1394.98 1021.23 1394.8 1020.44 1394.8 1019.55C1394.8 1018.67 1394.98 1017.88 1395.34 1017.2C1395.71 1016.52 1396.21 1015.99 1396.84 1015.62C1397.48 1015.23 1398.19 1015.04 1398.96 1015.04ZM1402.01 1019.58C1402.01 1018.98 1401.88 1018.45 1401.63 1018C1401.38 1017.55 1401.06 1017.21 1400.65 1016.98C1400.25 1016.74 1399.81 1016.62 1399.34 1016.62C1398.87 1016.62 1398.43 1016.74 1398.03 1016.98C1397.62 1017.2 1397.29 1017.54 1397.04 1017.98C1396.79 1018.42 1396.67 1018.94 1396.67 1019.55C1396.67 1020.16 1396.79 1020.69 1397.04 1021.15C1397.29 1021.61 1397.62 1021.96 1398.03 1022.21C1398.44 1022.44 1398.88 1022.56 1399.34 1022.56C1399.81 1022.56 1400.25 1022.44 1400.65 1022.21C1401.06 1021.97 1401.38 1021.63 1401.63 1021.18C1401.88 1020.73 1402.01 1020.19 1402.01 1019.58Z" fill="#1F44DD"/>
<rect x="1304.5" y="996.5" width="125" height="43" rx="21.5" stroke="#D2DAF8"/>
</g>
<g opacity="0.8">
<rect x="147.5" y="996.5" width="93" height="43" rx="21.5" fill="white"/>
<path d="M181.08 1012.88V1024H179.256V1019.14H174.024V1024H172.2V1012.88H174.024V1017.65H179.256V1012.88H181.08ZM193.065 1012.88L188.889 1024H186.777L182.585 1012.88H184.537L187.833 1022.13L191.145 1012.88H193.065ZM201.295 1021.73H196.639L195.839 1024H193.935L197.919 1012.86H200.031L204.015 1024H202.095L201.295 1021.73ZM200.783 1020.24L198.975 1015.07L197.151 1020.24H200.783ZM205.139 1018.42C205.139 1017.33 205.39 1016.35 205.891 1015.49C206.403 1014.62 207.091 1013.95 207.955 1013.47C208.83 1012.98 209.784 1012.74 210.819 1012.74C212.003 1012.74 213.054 1013.03 213.971 1013.62C214.899 1014.19 215.571 1015.01 215.987 1016.08H213.795C213.507 1015.49 213.107 1015.06 212.595 1014.77C212.083 1014.48 211.491 1014.34 210.819 1014.34C210.083 1014.34 209.427 1014.5 208.851 1014.83C208.275 1015.16 207.822 1015.64 207.491 1016.26C207.171 1016.87 207.011 1017.59 207.011 1018.42C207.011 1019.24 207.171 1019.96 207.491 1020.58C207.822 1021.19 208.275 1021.67 208.851 1022.02C209.427 1022.35 210.083 1022.51 210.819 1022.51C211.491 1022.51 212.083 1022.37 212.595 1022.08C213.107 1021.79 213.507 1021.35 213.795 1020.77H215.987C215.571 1021.83 214.899 1022.66 213.971 1023.23C213.054 1023.81 212.003 1024.1 210.819 1024.1C209.774 1024.1 208.819 1023.86 207.955 1023.38C207.091 1022.89 206.403 1022.21 205.891 1021.34C205.39 1020.48 205.139 1019.5 205.139 1018.42Z" fill="#1F44DD"/>
<rect x="147.5" y="996.5" width="93" height="43" rx="21.5" stroke="#D2DAF8"/>
</g>
<rect x="334.5" y="854.5" width="89" height="43" rx="21.5" fill="white"/>
<path d="M362.864 882.112C362.117 882.112 361.445 881.984 360.848 881.728C360.251 881.461 359.781 881.088 359.44 880.608C359.099 880.128 358.928 879.568 358.928 878.928H360.88C360.923 879.408 361.109 879.803 361.44 880.112C361.781 880.421 362.256 880.576 362.864 880.576C363.493 880.576 363.984 880.427 364.336 880.128C364.688 879.819 364.864 879.424 364.864 878.944C364.864 878.571 364.752 878.267 364.528 878.032C364.315 877.797 364.043 877.616 363.712 877.488C363.392 877.36 362.944 877.221 362.368 877.072C361.643 876.88 361.051 876.688 360.592 876.496C360.144 876.293 359.76 875.984 359.44 875.568C359.12 875.152 358.96 874.597 358.96 873.904C358.96 873.264 359.12 872.704 359.44 872.224C359.76 871.744 360.208 871.376 360.784 871.12C361.36 870.864 362.027 870.736 362.784 870.736C363.861 870.736 364.741 871.008 365.424 871.552C366.117 872.085 366.501 872.821 366.576 873.76H364.56C364.528 873.355 364.336 873.008 363.984 872.72C363.632 872.432 363.168 872.288 362.592 872.288C362.069 872.288 361.643 872.421 361.312 872.688C360.981 872.955 360.816 873.339 360.816 873.84C360.816 874.181 360.917 874.464 361.12 874.688C361.333 874.901 361.6 875.072 361.92 875.2C362.24 875.328 362.677 875.467 363.232 875.616C363.968 875.819 364.565 876.021 365.024 876.224C365.493 876.427 365.888 876.741 366.208 877.168C366.539 877.584 366.704 878.144 366.704 878.848C366.704 879.413 366.549 879.947 366.24 880.448C365.941 880.949 365.499 881.355 364.912 881.664C364.336 881.963 363.653 882.112 362.864 882.112ZM372.68 882.144C371.848 882.144 371.096 881.957 370.424 881.584C369.752 881.2 369.224 880.667 368.84 879.984C368.456 879.291 368.264 878.491 368.264 877.584C368.264 876.688 368.462 875.893 368.856 875.2C369.251 874.507 369.79 873.973 370.472 873.6C371.155 873.227 371.918 873.04 372.76 873.04C373.603 873.04 374.366 873.227 375.048 873.6C375.731 873.973 376.27 874.507 376.664 875.2C377.059 875.893 377.256 876.688 377.256 877.584C377.256 878.48 377.054 879.275 376.648 879.968C376.243 880.661 375.688 881.2 374.984 881.584C374.291 881.957 373.523 882.144 372.68 882.144ZM372.68 880.56C373.15 880.56 373.587 880.448 373.992 880.224C374.408 880 374.744 879.664 375 879.216C375.256 878.768 375.384 878.224 375.384 877.584C375.384 876.944 375.262 876.405 375.016 875.968C374.771 875.52 374.446 875.184 374.04 874.96C373.635 874.736 373.198 874.624 372.728 874.624C372.259 874.624 371.822 874.736 371.416 874.96C371.022 875.184 370.707 875.52 370.472 875.968C370.238 876.405 370.12 876.944 370.12 877.584C370.12 878.533 370.36 879.269 370.84 879.792C371.331 880.304 371.944 880.56 372.68 880.56ZM380.883 870.16V882H379.059V870.16H380.883ZM382.67 877.552C382.67 876.667 382.851 875.883 383.214 875.2C383.587 874.517 384.089 873.989 384.718 873.616C385.358 873.232 386.062 873.04 386.83 873.04C387.523 873.04 388.126 873.179 388.638 873.456C389.161 873.723 389.577 874.059 389.886 874.464V873.184H391.726V882H389.886V880.688C389.577 881.104 389.155 881.451 388.622 881.728C388.089 882.005 387.481 882.144 386.798 882.144C386.041 882.144 385.347 881.952 384.718 881.568C384.089 881.173 383.587 880.629 383.214 879.936C382.851 879.232 382.67 878.437 382.67 877.552ZM389.886 877.584C389.886 876.976 389.758 876.448 389.502 876C389.257 875.552 388.931 875.211 388.526 874.976C388.121 874.741 387.683 874.624 387.214 874.624C386.745 874.624 386.307 874.741 385.902 874.976C385.497 875.2 385.166 875.536 384.91 875.984C384.665 876.421 384.542 876.944 384.542 877.552C384.542 878.16 384.665 878.693 384.91 879.152C385.166 879.611 385.497 879.963 385.902 880.208C386.318 880.443 386.755 880.56 387.214 880.56C387.683 880.56 388.121 880.443 388.526 880.208C388.931 879.973 389.257 879.632 389.502 879.184C389.758 878.725 389.886 878.192 389.886 877.584ZM395.946 874.464C396.213 874.016 396.565 873.669 397.002 873.424C397.45 873.168 397.978 873.04 398.586 873.04V874.928H398.122C397.407 874.928 396.863 875.109 396.49 875.472C396.127 875.835 395.946 876.464 395.946 877.36V882H394.122V873.184H395.946V874.464Z" fill="#1F44DD"/>
<rect x="334.5" y="854.5" width="89" height="43" rx="21.5" stroke="#D2DAF8"/>
<g opacity="0.8">
<rect x="67.5" y="550.5" width="127" height="43" rx="21.5" fill="white"/>
<path d="M94.024 566.88V578H92.2V566.88H94.024ZM100.867 569.04C101.56 569.04 102.179 569.184 102.723 569.472C103.277 569.76 103.709 570.187 104.019 570.752C104.328 571.317 104.483 572 104.483 572.8V578H102.675V573.072C102.675 572.283 102.477 571.68 102.083 571.264C101.688 570.837 101.149 570.624 100.467 570.624C99.7841 570.624 99.2401 570.837 98.8348 571.264C98.4401 571.68 98.2428 572.283 98.2428 573.072V578H96.4188V569.184H98.2428V570.192C98.5414 569.829 98.9201 569.547 99.3788 569.344C99.8481 569.141 100.344 569.04 100.867 569.04ZM110.009 578.144C109.316 578.144 108.692 578.021 108.137 577.776C107.593 577.52 107.161 577.179 106.841 576.752C106.521 576.315 106.351 575.829 106.329 575.296H108.217C108.249 575.669 108.425 575.984 108.745 576.24C109.076 576.485 109.487 576.608 109.977 576.608C110.489 576.608 110.884 576.512 111.161 576.32C111.449 576.117 111.593 575.861 111.593 575.552C111.593 575.221 111.433 574.976 111.113 574.816C110.804 574.656 110.308 574.48 109.625 574.288C108.964 574.107 108.425 573.931 108.009 573.76C107.593 573.589 107.231 573.328 106.921 572.976C106.623 572.624 106.473 572.16 106.473 571.584C106.473 571.115 106.612 570.688 106.889 570.304C107.167 569.909 107.561 569.6 108.073 569.376C108.596 569.152 109.193 569.04 109.865 569.04C110.868 569.04 111.673 569.296 112.281 569.808C112.9 570.309 113.231 570.997 113.273 571.872H111.449C111.417 571.477 111.257 571.163 110.969 570.928C110.681 570.693 110.292 570.576 109.801 570.576C109.321 570.576 108.953 570.667 108.697 570.848C108.441 571.029 108.313 571.269 108.313 571.568C108.313 571.803 108.399 572 108.569 572.16C108.74 572.32 108.948 572.448 109.193 572.544C109.439 572.629 109.801 572.741 110.281 572.88C110.921 573.051 111.444 573.227 111.849 573.408C112.265 573.579 112.623 573.835 112.921 574.176C113.22 574.517 113.375 574.971 113.385 575.536C113.385 576.037 113.247 576.485 112.969 576.88C112.692 577.275 112.297 577.584 111.785 577.808C111.284 578.032 110.692 578.144 110.009 578.144ZM123.34 569.184V578H121.516V576.96C121.228 577.323 120.85 577.611 120.38 577.824C119.922 578.027 119.431 578.128 118.908 578.128C118.215 578.128 117.591 577.984 117.036 577.696C116.492 577.408 116.06 576.981 115.74 576.416C115.431 575.851 115.276 575.168 115.276 574.368V569.184H117.084V574.096C117.084 574.885 117.282 575.493 117.676 575.92C118.071 576.336 118.61 576.544 119.292 576.544C119.975 576.544 120.514 576.336 120.908 575.92C121.314 575.493 121.516 574.885 121.516 574.096V569.184H123.34ZM127.571 566.16V578H125.747V566.16H127.571ZM129.358 573.552C129.358 572.667 129.539 571.883 129.902 571.2C130.275 570.517 130.776 569.989 131.406 569.616C132.046 569.232 132.75 569.04 133.518 569.04C134.211 569.04 134.814 569.179 135.326 569.456C135.848 569.723 136.264 570.059 136.574 570.464V569.184H138.414V578H136.574V576.688C136.264 577.104 135.843 577.451 135.31 577.728C134.776 578.005 134.168 578.144 133.486 578.144C132.728 578.144 132.035 577.952 131.406 577.568C130.776 577.173 130.275 576.629 129.902 575.936C129.539 575.232 129.358 574.437 129.358 573.552ZM136.574 573.584C136.574 572.976 136.446 572.448 136.19 572C135.944 571.552 135.619 571.211 135.214 570.976C134.808 570.741 134.371 570.624 133.902 570.624C133.432 570.624 132.995 570.741 132.59 570.976C132.184 571.2 131.854 571.536 131.598 571.984C131.352 572.421 131.23 572.944 131.23 573.552C131.23 574.16 131.352 574.693 131.598 575.152C131.854 575.611 132.184 575.963 132.59 576.208C133.006 576.443 133.443 576.56 133.902 576.56C134.371 576.56 134.808 576.443 135.214 576.208C135.619 575.973 135.944 575.632 136.19 575.184C136.446 574.725 136.574 574.192 136.574 573.584ZM142.937 570.672V575.552C142.937 575.883 143.012 576.123 143.161 576.272C143.321 576.411 143.588 576.48 143.961 576.48H145.081V578H143.641C142.82 578 142.191 577.808 141.753 577.424C141.316 577.04 141.097 576.416 141.097 575.552V570.672H140.057V569.184H141.097V566.992H142.937V569.184H145.081V570.672H142.937ZM147.691 568.016C147.36 568.016 147.083 567.904 146.859 567.68C146.635 567.456 146.523 567.179 146.523 566.848C146.523 566.517 146.635 566.24 146.859 566.016C147.083 565.792 147.36 565.68 147.691 565.68C148.011 565.68 148.283 565.792 148.507 566.016C148.731 566.24 148.843 566.517 148.843 566.848C148.843 567.179 148.731 567.456 148.507 567.68C148.283 567.904 148.011 568.016 147.691 568.016ZM148.587 569.184V578H146.763V569.184H148.587ZM154.805 578.144C153.973 578.144 153.221 577.957 152.549 577.584C151.877 577.2 151.349 576.667 150.965 575.984C150.581 575.291 150.389 574.491 150.389 573.584C150.389 572.688 150.587 571.893 150.981 571.2C151.376 570.507 151.915 569.973 152.597 569.6C153.28 569.227 154.043 569.04 154.885 569.04C155.728 569.04 156.491 569.227 157.173 569.6C157.856 569.973 158.395 570.507 158.789 571.2C159.184 571.893 159.381 572.688 159.381 573.584C159.381 574.48 159.179 575.275 158.773 575.968C158.368 576.661 157.813 577.2 157.109 577.584C156.416 577.957 155.648 578.144 154.805 578.144ZM154.805 576.56C155.275 576.56 155.712 576.448 156.117 576.224C156.533 576 156.869 575.664 157.125 575.216C157.381 574.768 157.509 574.224 157.509 573.584C157.509 572.944 157.387 572.405 157.141 571.968C156.896 571.52 156.571 571.184 156.165 570.96C155.76 570.736 155.323 570.624 154.853 570.624C154.384 570.624 153.947 570.736 153.541 570.96C153.147 571.184 152.832 571.52 152.597 571.968C152.363 572.405 152.245 572.944 152.245 573.584C152.245 574.533 152.485 575.269 152.965 575.792C153.456 576.304 154.069 576.56 154.805 576.56ZM165.632 569.04C166.326 569.04 166.944 569.184 167.488 569.472C168.043 569.76 168.475 570.187 168.784 570.752C169.094 571.317 169.248 572 169.248 572.8V578H167.44V573.072C167.44 572.283 167.243 571.68 166.848 571.264C166.454 570.837 165.915 570.624 165.232 570.624C164.55 570.624 164.006 570.837 163.6 571.264C163.206 571.68 163.008 572.283 163.008 573.072V578H161.184V569.184H163.008V570.192C163.307 569.829 163.686 569.547 164.144 569.344C164.614 569.141 165.11 569.04 165.632 569.04Z" fill="#1F44DD"/>
<rect x="67.5" y="550.5" width="127" height="43" rx="21.5" stroke="#D2DAF8"/>
</g>
<g opacity="0.6">
<rect x="481.5" y="1018.5" width="111" height="43" rx="21.5" fill="white"/>
<path d="M512.744 1034.88V1036.37H508.024V1039.65H511.704V1041.14H508.024V1046H506.2V1034.88H512.744ZM522.514 1041.38C522.514 1041.71 522.493 1042.01 522.45 1042.27H515.714C515.768 1042.98 516.029 1043.54 516.498 1043.97C516.968 1044.39 517.544 1044.61 518.226 1044.61C519.208 1044.61 519.901 1044.2 520.306 1043.38H522.274C522.008 1044.19 521.522 1044.85 520.818 1045.38C520.125 1045.89 519.261 1046.14 518.226 1046.14C517.384 1046.14 516.626 1045.96 515.954 1045.58C515.293 1045.2 514.77 1044.67 514.386 1043.98C514.013 1043.29 513.826 1042.49 513.826 1041.58C513.826 1040.68 514.008 1039.88 514.37 1039.2C514.744 1038.51 515.261 1037.97 515.922 1037.6C516.594 1037.23 517.362 1037.04 518.226 1037.04C519.058 1037.04 519.8 1037.22 520.45 1037.58C521.101 1037.95 521.608 1038.46 521.97 1039.12C522.333 1039.77 522.514 1040.52 522.514 1041.38ZM520.61 1040.8C520.6 1040.13 520.36 1039.59 519.89 1039.18C519.421 1038.78 518.84 1038.58 518.146 1038.58C517.517 1038.58 516.978 1038.78 516.53 1039.18C516.082 1039.58 515.816 1040.12 515.73 1040.8H520.61ZM528.757 1037.04C529.451 1037.04 530.069 1037.18 530.613 1037.47C531.168 1037.76 531.6 1038.19 531.909 1038.75C532.219 1039.32 532.373 1040 532.373 1040.8V1046H530.565V1041.07C530.565 1040.28 530.368 1039.68 529.973 1039.26C529.579 1038.84 529.04 1038.62 528.357 1038.62C527.675 1038.62 527.131 1038.84 526.725 1039.26C526.331 1039.68 526.133 1040.28 526.133 1041.07V1046H524.309V1037.18H526.133V1038.19C526.432 1037.83 526.811 1037.55 527.269 1037.34C527.739 1037.14 528.235 1037.04 528.757 1037.04ZM534.092 1041.58C534.092 1040.68 534.273 1039.88 534.636 1039.2C535.009 1038.51 535.521 1037.97 536.172 1037.6C536.823 1037.23 537.569 1037.04 538.412 1037.04C539.479 1037.04 540.359 1037.3 541.052 1037.81C541.756 1038.31 542.231 1039.03 542.476 1039.97H540.508C540.348 1039.53 540.092 1039.19 539.74 1038.94C539.388 1038.7 538.945 1038.58 538.412 1038.58C537.665 1038.58 537.068 1038.84 536.62 1039.38C536.183 1039.9 535.964 1040.63 535.964 1041.58C535.964 1042.53 536.183 1043.27 536.62 1043.81C537.068 1044.34 537.665 1044.61 538.412 1044.61C539.468 1044.61 540.167 1044.14 540.508 1043.22H542.476C542.22 1044.11 541.74 1044.83 541.036 1045.36C540.332 1045.88 539.457 1046.14 538.412 1046.14C537.569 1046.14 536.823 1045.96 536.172 1045.58C535.521 1045.2 535.009 1044.67 534.636 1043.98C534.273 1043.29 534.092 1042.49 534.092 1041.58ZM545.222 1036.02C544.891 1036.02 544.614 1035.9 544.39 1035.68C544.166 1035.46 544.054 1035.18 544.054 1034.85C544.054 1034.52 544.166 1034.24 544.39 1034.02C544.614 1033.79 544.891 1033.68 545.222 1033.68C545.542 1033.68 545.814 1033.79 546.038 1034.02C546.262 1034.24 546.374 1034.52 546.374 1034.85C546.374 1035.18 546.262 1035.46 546.038 1035.68C545.814 1035.9 545.542 1036.02 545.222 1036.02ZM546.118 1037.18V1046H544.294V1037.18H546.118ZM552.961 1037.04C553.654 1037.04 554.273 1037.18 554.817 1037.47C555.371 1037.76 555.803 1038.19 556.113 1038.75C556.422 1039.32 556.577 1040 556.577 1040.8V1046H554.769V1041.07C554.769 1040.28 554.571 1039.68 554.177 1039.26C553.782 1038.84 553.243 1038.62 552.561 1038.62C551.878 1038.62 551.334 1038.84 550.929 1039.26C550.534 1039.68 550.337 1040.28 550.337 1041.07V1046H548.513V1037.18H550.337V1038.19C550.635 1037.83 551.014 1037.55 551.473 1037.34C551.942 1037.14 552.438 1037.04 552.961 1037.04ZM562.455 1037.04C563.138 1037.04 563.74 1037.18 564.263 1037.46C564.796 1037.72 565.212 1038.06 565.511 1038.46V1037.18H567.351V1046.14C567.351 1046.95 567.18 1047.67 566.839 1048.3C566.498 1048.94 566.002 1049.45 565.351 1049.81C564.711 1050.17 563.943 1050.35 563.047 1050.35C561.852 1050.35 560.86 1050.07 560.071 1049.5C559.282 1048.95 558.834 1048.19 558.727 1047.23H560.535C560.674 1047.69 560.967 1048.06 561.415 1048.34C561.874 1048.62 562.418 1048.77 563.047 1048.77C563.783 1048.77 564.375 1048.54 564.823 1048.1C565.282 1047.65 565.511 1047 565.511 1046.14V1044.67C565.202 1045.09 564.78 1045.44 564.247 1045.73C563.724 1046.01 563.127 1046.14 562.455 1046.14C561.687 1046.14 560.983 1045.95 560.343 1045.57C559.714 1045.17 559.212 1044.63 558.839 1043.94C558.476 1043.23 558.295 1042.44 558.295 1041.55C558.295 1040.67 558.476 1039.88 558.839 1039.2C559.212 1038.52 559.714 1037.99 560.343 1037.62C560.983 1037.23 561.687 1037.04 562.455 1037.04ZM565.511 1041.58C565.511 1040.98 565.383 1040.45 565.127 1040C564.882 1039.55 564.556 1039.21 564.151 1038.98C563.746 1038.74 563.308 1038.62 562.839 1038.62C562.37 1038.62 561.932 1038.74 561.527 1038.98C561.122 1039.2 560.791 1039.54 560.535 1039.98C560.29 1040.42 560.167 1040.94 560.167 1041.55C560.167 1042.16 560.29 1042.69 560.535 1043.15C560.791 1043.61 561.122 1043.96 561.527 1044.21C561.943 1044.44 562.38 1044.56 562.839 1044.56C563.308 1044.56 563.746 1044.44 564.151 1044.21C564.556 1043.97 564.882 1043.63 565.127 1043.18C565.383 1042.73 565.511 1042.19 565.511 1041.58Z" fill="#1F44DD"/>
<rect x="481.5" y="1018.5" width="111" height="43" rx="21.5" stroke="#D2DAF8"/>
</g>
<g opacity="0.6">
<rect x="876.5" y="1018.5" width="90" height="43" rx="21.5" fill="white"/>
<path d="M908.976 1038.19C908.976 1038.76 908.843 1039.29 908.576 1039.79C908.309 1040.29 907.883 1040.7 907.296 1041.02C906.709 1041.33 905.957 1041.49 905.04 1041.49H903.024V1046H901.2V1034.88H905.04C905.893 1034.88 906.613 1035.03 907.2 1035.33C907.797 1035.62 908.24 1036.01 908.528 1036.51C908.827 1037.01 908.976 1037.57 908.976 1038.19ZM905.04 1040C905.733 1040 906.251 1039.85 906.592 1039.54C906.933 1039.22 907.104 1038.77 907.104 1038.19C907.104 1036.98 906.416 1036.37 905.04 1036.37H903.024V1040H905.04ZM914.54 1046.14C913.708 1046.14 912.956 1045.96 912.284 1045.58C911.612 1045.2 911.084 1044.67 910.7 1043.98C910.316 1043.29 910.124 1042.49 910.124 1041.58C910.124 1040.69 910.321 1039.89 910.716 1039.2C911.11 1038.51 911.649 1037.97 912.332 1037.6C913.014 1037.23 913.777 1037.04 914.62 1037.04C915.462 1037.04 916.225 1037.23 916.908 1037.6C917.59 1037.97 918.129 1038.51 918.524 1039.2C918.918 1039.89 919.116 1040.69 919.116 1041.58C919.116 1042.48 918.913 1043.27 918.508 1043.97C918.102 1044.66 917.548 1045.2 916.844 1045.58C916.15 1045.96 915.382 1046.14 914.54 1046.14ZM914.54 1044.56C915.009 1044.56 915.446 1044.45 915.852 1044.22C916.268 1044 916.604 1043.66 916.86 1043.22C917.116 1042.77 917.244 1042.22 917.244 1041.58C917.244 1040.94 917.121 1040.41 916.876 1039.97C916.63 1039.52 916.305 1039.18 915.9 1038.96C915.494 1038.74 915.057 1038.62 914.588 1038.62C914.118 1038.62 913.681 1038.74 913.276 1038.96C912.881 1039.18 912.566 1039.52 912.332 1039.97C912.097 1040.41 911.98 1040.94 911.98 1041.58C911.98 1042.53 912.22 1043.27 912.7 1043.79C913.19 1044.3 913.804 1044.56 914.54 1044.56ZM924.743 1046.14C923.911 1046.14 923.159 1045.96 922.487 1045.58C921.815 1045.2 921.287 1044.67 920.903 1043.98C920.519 1043.29 920.327 1042.49 920.327 1041.58C920.327 1040.69 920.524 1039.89 920.919 1039.2C921.313 1038.51 921.852 1037.97 922.535 1037.6C923.217 1037.23 923.98 1037.04 924.823 1037.04C925.665 1037.04 926.428 1037.23 927.111 1037.6C927.793 1037.97 928.332 1038.51 928.727 1039.2C929.121 1039.89 929.319 1040.69 929.319 1041.58C929.319 1042.48 929.116 1043.27 928.711 1043.97C928.305 1044.66 927.751 1045.2 927.047 1045.58C926.353 1045.96 925.585 1046.14 924.743 1046.14ZM924.743 1044.56C925.212 1044.56 925.649 1044.45 926.055 1044.22C926.471 1044 926.807 1043.66 927.063 1043.22C927.319 1042.77 927.447 1042.22 927.447 1041.58C927.447 1040.94 927.324 1040.41 927.079 1039.97C926.833 1039.52 926.508 1039.18 926.103 1038.96C925.697 1038.74 925.26 1038.62 924.791 1038.62C924.321 1038.62 923.884 1038.74 923.479 1038.96C923.084 1039.18 922.769 1039.52 922.535 1039.97C922.3 1040.41 922.183 1040.94 922.183 1041.58C922.183 1042.53 922.423 1043.27 922.903 1043.79C923.393 1044.3 924.007 1044.56 924.743 1044.56ZM932.946 1034.16V1046H931.122V1034.16H932.946ZM938.541 1046.14C937.847 1046.14 937.223 1046.02 936.669 1045.78C936.125 1045.52 935.693 1045.18 935.373 1044.75C935.053 1044.31 934.882 1043.83 934.861 1043.3H936.749C936.781 1043.67 936.957 1043.98 937.277 1044.24C937.607 1044.49 938.018 1044.61 938.509 1044.61C939.021 1044.61 939.415 1044.51 939.693 1044.32C939.981 1044.12 940.125 1043.86 940.125 1043.55C940.125 1043.22 939.965 1042.98 939.645 1042.82C939.335 1042.66 938.839 1042.48 938.157 1042.29C937.495 1042.11 936.957 1041.93 936.541 1041.76C936.125 1041.59 935.762 1041.33 935.453 1040.98C935.154 1040.62 935.005 1040.16 935.005 1039.58C935.005 1039.11 935.143 1038.69 935.421 1038.3C935.698 1037.91 936.093 1037.6 936.605 1037.38C937.127 1037.15 937.725 1037.04 938.397 1037.04C939.399 1037.04 940.205 1037.3 940.813 1037.81C941.431 1038.31 941.762 1039 941.805 1039.87H939.981C939.949 1039.48 939.789 1039.16 939.501 1038.93C939.213 1038.69 938.823 1038.58 938.333 1038.58C937.853 1038.58 937.485 1038.67 937.229 1038.85C936.973 1039.03 936.845 1039.27 936.845 1039.57C936.845 1039.8 936.93 1040 937.101 1040.16C937.271 1040.32 937.479 1040.45 937.725 1040.54C937.97 1040.63 938.333 1040.74 938.813 1040.88C939.453 1041.05 939.975 1041.23 940.381 1041.41C940.797 1041.58 941.154 1041.83 941.453 1042.18C941.751 1042.52 941.906 1042.97 941.917 1043.54C941.917 1044.04 941.778 1044.49 941.501 1044.88C941.223 1045.27 940.829 1045.58 940.317 1045.81C939.815 1046.03 939.223 1046.14 938.541 1046.14Z" fill="#1F44DD"/>
<rect x="876.5" y="1018.5" width="90" height="43" rx="21.5" stroke="#D2DAF8"/>
</g>
</svg>
