<svg width="40" height="41" viewBox="0 0 40 41" fill="none" xmlns="http://www.w3.org/2000/svg">
<path d="M11.6663 36.9056V18.5723M3.33301 21.9056V33.5723C3.33301 35.4133 4.82539 36.9056 6.66634 36.9056H29.0433C31.5113 36.9056 33.61 35.1051 33.9853 32.6659L35.7802 20.9993C36.2462 17.9704 33.9027 15.2389 30.8383 15.2389H24.9997C24.0792 15.2389 23.333 14.4927 23.333 13.5723V7.682C23.333 5.41225 21.493 3.57227 19.2233 3.57227C18.6818 3.57227 18.1913 3.8911 17.9715 4.3858L12.1062 17.5824C11.8387 18.1844 11.2419 18.5723 10.5832 18.5723H6.66634C4.82539 18.5723 3.33301 20.0646 3.33301 21.9056Z" stroke="#5773E5" stroke-width="3" stroke-linecap="round" stroke-linejoin="round"/>
</svg>
