<svg width="48" height="48" viewBox="0 0 48 48" fill="none" xmlns="http://www.w3.org/2000/svg">
<g id="user-hard-hat 1">
<path id="Vector" d="M40.0002 26.3396V25.9996C40.0021 23.8597 39.5748 21.7411 38.7434 19.7692C37.9121 17.7973 36.6936 16.0122 35.1602 14.5196C33.3699 12.7776 31.1894 11.4885 28.8002 10.7596H28.7002C27.025 10.2319 25.2763 9.97532 23.5202 9.99963C19.337 10.2292 15.3997 12.0492 12.5145 15.0868C9.62926 18.1245 8.01428 22.1501 8.00016 26.3396C6.6635 26.8098 5.53638 27.7379 4.81843 28.9595C4.10048 30.1811 3.83804 31.6174 4.07759 33.014C4.31713 34.4105 5.04321 35.6773 6.12722 36.5898C7.21123 37.5023 8.58321 38.0017 10.0002 37.9996H38.0002C39.4171 38.0017 40.7891 37.5023 41.8731 36.5898C42.9571 35.6773 43.6832 34.4105 43.9228 33.014C44.1623 31.6174 43.8999 30.1811 43.1819 28.9595C42.464 27.7379 41.3368 26.8098 40.0002 26.3396ZM38.0002 33.9996H10.0002C9.46973 33.9996 8.96102 33.7889 8.58595 33.4138C8.21088 33.0388 8.00016 32.5301 8.00016 31.9996C8.00016 31.4692 8.21088 30.9605 8.58595 30.5854C8.96102 30.2103 9.46973 29.9996 10.0002 29.9996H14.0002C14.5306 29.9996 15.0393 29.7889 15.4144 29.4138C15.7895 29.0388 16.0002 28.5301 16.0002 27.9996C16.0002 27.4692 15.7895 26.9605 15.4144 26.5854C15.0393 26.2103 14.5306 25.9996 14.0002 25.9996H12.0002C12.0914 23.9252 12.6851 21.904 13.7302 20.1099C14.7754 18.3157 16.2407 16.8022 18.0002 15.6996V21.9996C18.0002 22.5301 18.2109 23.0388 18.586 23.4138C18.961 23.7889 19.4697 23.9996 20.0002 23.9996C20.5306 23.9996 21.0393 23.7889 21.4144 23.4138C21.7895 23.0388 22.0002 22.5301 22.0002 21.9996V14.1796C22.543 14.0889 23.0906 14.0288 23.6402 13.9996H24.0002C24.6715 14.0058 25.3409 14.0727 26.0002 14.1996V21.9996C26.0002 22.5301 26.2109 23.0388 26.586 23.4138C26.961 23.7889 27.4697 23.9996 28.0002 23.9996C28.5306 23.9996 29.0393 23.7889 29.4144 23.4138C29.7895 23.0388 30.0002 22.5301 30.0002 21.9996V15.6396C30.8486 16.1309 31.64 16.7144 32.3602 17.3796C33.5133 18.4994 34.4297 19.8395 35.055 21.3202C35.6803 22.801 36.0017 24.3923 36.0002 25.9996H34.0002C33.4697 25.9996 32.961 26.2103 32.586 26.5854C32.2109 26.9605 32.0002 27.4692 32.0002 27.9996C32.0002 28.5301 32.2109 29.0388 32.586 29.4138C32.961 29.7889 33.4697 29.9996 34.0002 29.9996H38.0002C38.5306 29.9996 39.0393 30.2103 39.4144 30.5854C39.7895 30.9605 40.0002 31.4692 40.0002 31.9996C40.0002 32.5301 39.7895 33.0388 39.4144 33.4138C39.0393 33.7889 38.5306 33.9996 38.0002 33.9996Z" fill="#1F44DD"/>
</g>
</svg>
